<?xml version="1.0" encoding="utf-8"?>
<!-- Generator: Adobe Illustrator 18.0.0, SVG Export Plug-In . SVG Version: 6.00 Build 0)  -->
<!DOCTYPE svg PUBLIC "-//W3C//DTD SVG 1.1//EN" "http://www.w3.org/Graphics/SVG/1.1/DTD/svg11.dtd">
<svg version="1.1" id="Layer_1" xmlns="http://www.w3.org/2000/svg" xmlns:xlink="http://www.w3.org/1999/xlink" x="0px" y="0px"
	 width="153px" height="153px" viewBox="0 0 153 153" enable-background="new 0 0 153 153" xml:space="preserve">
<g>
	<circle fill="#FFFFFF" stroke="#143469" stroke-width="3" stroke-miterlimit="10" cx="76.5" cy="76.5" r="75"/>
	<path fill="#143469" d="M61.1,136.1c0.2,0,0.4,0,0.6-0.1c0-0.1,0.1-0.2,0.1-0.3c0.7-5.4,1.3-10.9,2-16.3c0.2-1.4,0.7-2.5,1.7-3.7
		c3-3.4,5.9-7,8.7-10.6c1.3-1.7,2.4-3.5,3.8-5.5c-1.7,0.4-3,0.7-4.3,1c4.5-2.3,7.7-5.4,9.7-9.2c2.4-4.5,4.3-9.2,6.3-13.8
		c0.5-1.2,0.9-2.5,1.5-3.9c-2.6,1.3-5,2.4-7.3,3.5c4.7-3.7,7.5-6.8,9.6-10.5c4.2-7.5,5.3-15.6,6.9-23.6c-3.4,2.4-6.7,4.7-10.1,7.1
		c-0.1-0.1-0.2-0.2-0.3-0.3c10.6-8.8,12.9-19.8,13.3-31.6c-0.4,0.1-0.6,0.1-0.8,0.1c-0.4,0.1-0.9,0.2-1.3,0.4
		c-4.2,1.4-7.4,3.9-10.1,6.7C80.5,36.1,73.2,47.7,71,61.6c-0.5-2.6-1-4.8-1.5-7.3c-0.3,0.4-0.5,0.6-0.6,0.8
		c-3.2,5.2-6.1,10.6-7.8,16.3c-1.9,6-2.4,11.9-0.5,18c0.2,0.7,0.5,1.4,0.8,2.2c-0.1,0-0.2,0.1-0.3,0.1c-1.3-2.3-2.6-4.6-3.9-6.9
		c-0.2,0-0.3,0-0.5,0c-0.5,3.9-1.2,7.9-1.3,11.8c-0.2,3.6,0.4,7.1,3.8,10.2c-1-0.3-1.7-0.4-2.6-0.7c0,0.4,0,0.7,0.1,1
		c0.9,2.9,1.7,5.9,2.8,8.8c0.8,2,1.3,3.9,1.1,6c-0.3,2.9-0.3,5.8-0.3,8.7C60.3,132.4,60.8,134.3,61.1,136.1z M92.5,34.8
		c-13.6,25-22.7,51.2-29.4,77.9C61.6,96,79.1,48.9,92.5,34.8z"/>
</g>
</svg>
