<?xml version="1.0" encoding="utf-8"?>
<!-- Generator: Adobe Illustrator 18.0.0, SVG Export Plug-In . SVG Version: 6.00 Build 0)  -->
<!DOCTYPE svg PUBLIC "-//W3C//DTD SVG 1.1//EN" "http://www.w3.org/Graphics/SVG/1.1/DTD/svg11.dtd">
<svg version="1.1" id="Layer_1" xmlns="http://www.w3.org/2000/svg" xmlns:xlink="http://www.w3.org/1999/xlink" x="0px" y="0px"
	 width="153px" height="153px" viewBox="0 0 153 153" enable-background="new 0 0 153 153" xml:space="preserve">
<circle fill="#FFFFFF" stroke="#143469" stroke-width="3" stroke-miterlimit="10" cx="76.5" cy="76.5" r="75"/>
<g>
	<path fill="#143469" d="M125.8,46.8v-6.7l-1-0.4c-0.3-0.1-8.3-3.2-18.8-3.2c-11.3,0-21.1,3.4-29,10.3C69,39.9,59.3,36.5,48,36.5
		c-10.6,0-18.5,3.1-18.8,3.2l-1,0.4v6.2C25,46.9,23,48,23,49.8c0,9.1,0,64.3,0,64.3h47.4c1.6,1.5,4,2.4,6.7,2.4
		c2.7,0,5.1-0.9,6.7-2.4H130c0,0,0-61.2,0-64.3C130,48.3,128.4,47.4,125.8,46.8z M76.5,109c-3.9-1.6-17.5-6.8-31.1-6.8
		c-5.4,0-10.1,0.8-14.2,2.4V42.2c2.4-0.8,8.8-2.6,16.7-2.6c10.4,0,19.4,3.2,26.7,9.3v37.3l1.8-2V109z M122.7,104.7
		c-4.3-1.7-9.3-2.6-14.9-2.6c-13.6,0-26.5,5.2-30.4,6.9V84.2l1.8,2V48.9c7.3-6.1,16.3-9.3,26.7-9.3c7.9,0,14.4,1.9,16.7,2.6V104.7z"
		/>
	<path fill="#143469" d="M56.2,52.4c7.3,1.4,12.2,4.1,12.3,4.1l1.2-2.2c-0.4-0.2-5.7-3.1-13.5-4.5L56.2,52.4L56.2,52.4z"/>
	<path fill="#143469" d="M56.2,59.5c7.3,1.4,12.2,4.1,12.3,4.1l1.2-2.2c-0.4-0.2-5.7-3.1-13.5-4.5L56.2,59.5L56.2,59.5z"/>
	<path fill="#143469" d="M56.2,66.1c7.3,1.4,12.2,4.1,12.3,4.1l1.2-2.2c-0.4-0.2-5.7-3.1-13.5-4.5L56.2,66.1L56.2,66.1z"/>
	<path fill="#143469" d="M56.2,73.3c7.3,1.4,12.2,4.1,12.3,4.1l1.2-2.2c-0.4-0.2-5.7-3.1-13.5-4.5L56.2,73.3L56.2,73.3z"/>
	<path fill="#143469" d="M37.3,78.1l0.6,2.4c16-4.2,30.4,3.6,30.5,3.7l1.2-2.2C69.1,81.6,54.3,73.6,37.3,78.1z"/>
	<path fill="#143469" d="M37.3,85l0.6,2.4c16-4.2,30.4,3.6,30.5,3.7l1.2-2.2C69.1,88.5,54.3,80.5,37.3,85z"/>
	<path fill="#143469" d="M37.3,91.9l0.6,2.4C54,90,68.4,97.9,68.5,98l1.2-2.2C69.1,95.5,54.3,87.4,37.3,91.9z"/>
	<path fill="#143469" d="M86.2,56.7c0.1-0.1,14.5-7.9,30.5-3.7l0.6-2.4c-17-4.5-31.8,3.6-32.4,3.9L86.2,56.7z"/>
	<path fill="#143469" d="M85,61.6l1.2,2.2c0.1-0.1,14.5-7.9,30.5-3.7l0.6-2.4C100.4,53.2,85.6,61.2,85,61.6z"/>
	<path fill="#143469" d="M85,68.2l1.2,2.2c0.1-0.1,14.5-7.9,30.5-3.7l0.6-2.4C100.4,59.8,85.6,67.9,85,68.2z"/>
	<path fill="#143469" d="M85,75.5l1.2,2.2c0.1-0.1,14.5-7.9,30.5-3.7l0.6-2.4C100.4,67,85.6,75.1,85,75.5z"/>
	<path fill="#143469" d="M85,82.2l1.2,2.2c0.1-0.1,14.5-7.9,30.5-3.7l0.6-2.4C100.4,73.7,85.6,81.8,85,82.2z"/>
	<path fill="#143469" d="M85,89.1l1.2,2.2c0.1-0.1,14.5-7.9,30.5-3.7l0.6-2.4C100.4,80.6,85.6,88.7,85,89.1z"/>
	<path fill="#143469" d="M85,96l1.2,2.2c0.1-0.1,14.5-7.9,30.5-3.7l0.6-2.4C100.4,87.6,85.6,95.6,85,96z"/>
	<path fill="#143469" d="M53.5,72.9V49.4c0,0-4-0.5-8.1-0.3c-4.1,0.1-8.1,1.4-8.1,1.4v23.5c0,0,3.3-1,7.7-1.3
		C49.3,72.3,53.5,72.9,53.5,72.9z"/>
</g>
</svg>
