<?xml version="1.0" encoding="utf-8"?>
<!-- Generator: Adobe Illustrator 18.0.0, SVG Export Plug-In . SVG Version: 6.00 Build 0)  -->
<!DOCTYPE svg PUBLIC "-//W3C//DTD SVG 1.1//EN" "http://www.w3.org/Graphics/SVG/1.1/DTD/svg11.dtd">
<svg version="1.1" id="Layer_1" xmlns="http://www.w3.org/2000/svg" xmlns:xlink="http://www.w3.org/1999/xlink" x="0px" y="0px"
	 width="153px" height="153px" viewBox="0 0 153 153" enable-background="new 0 0 153 153" xml:space="preserve">
<circle fill="#FFFFFF" stroke="#143469" stroke-width="3" stroke-miterlimit="10" cx="76.5" cy="76.5" r="75"/>
<path fill="#143469" d="M114,26.5H39c-5.2,0-9.4,4.2-9.4,9.4v81.3c0,5.2,4.2,9.4,9.4,9.4h75c5.2,0,9.4-4.2,9.4-9.4V35.9
	C123.4,30.7,119.2,26.5,114,26.5z M110.9,114H42.1V39h68.8V114z M54.6,82.8h43.8V89H54.6V82.8z M54.6,95.3h43.8v6.3H54.6V95.3z
	 M60.9,54.6c0,5.2,4.2,9.4,9.4,9.4s9.4-4.2,9.4-9.4s-4.2-9.4-9.4-9.4S60.9,49.4,60.9,54.6z M76.5,64H64c-5.2,0-9.4,2.8-9.4,6.3v6.3
	h31.3v-6.3C85.9,66.8,81.7,64,76.5,64z"/>
</svg>
