<svg xmlns="http://www.w3.org/2000/svg" viewBox="0 0 100 200" style="enable-background:new 0 0 101 201"><g id="g3" transform="translate(-.5-.5)"><path d="m50.5 10.5c-22.1 0-40 17.9-40 40 0 22.1 17.9 40 40 40 22.1 0 40-17.9 40-40 0-22.1-17.9-40-40-40m25 45h-20v20h-10v-20h-20v-10h20v-20h10v20h20v10" id="path7" style="fill:#0071bc"/><path d="m50.5 110.5c-22.1 0-40 17.9-40 40 0 22.1 17.9 40 40 40 22.1 0 40-17.9 40-40 0-22.1-17.9-40-40-40m25 45h-50v-10h50v10" id="path11" style="fill:#999"/></g></svg>