<?xml version="1.0" encoding="utf-8"?>
<!-- Generator: Adobe Illustrator 17.1.0, SVG Export Plug-In . SVG Version: 6.00 Build 0)  -->
<!DOCTYPE svg PUBLIC "-//W3C//DTD SVG 1.1//EN" "http://www.w3.org/Graphics/SVG/1.1/DTD/svg11.dtd">
<svg version="1.1" id="Layer_1" xmlns="http://www.w3.org/2000/svg" xmlns:xlink="http://www.w3.org/1999/xlink" x="0px" y="0px"
	 viewBox="0 0 15 14" enable-background="new 0 0 15 14" xml:space="preserve">
<g>
	<path fill="#FFFFFF" d="M13.1,14c-3.8,0-7.5,0-11.3,0c-0.1,0-0.2,0-0.2-0.1c-0.4-0.1-0.7-0.5-0.7-1c0-0.5,0-1,0-1.4
		c0-0.5,0.1-0.9,0.3-1.4C1.8,8.7,2.6,7.3,3.5,6c0.1-0.2,0.4-0.4,0.6-0.4c0.2,0,0.4,0,0.6,0c0-0.1,0-0.1,0-0.2c0-0.3,0-0.6,0-0.9
		C4.7,4.2,4.8,4,5,3.9c0.3-0.2,0.7-0.2,1-0.1c0.3,0.1,0.5,0.4,0.5,0.7c0,0.3,0,0.6,0,0.8c0,0.1,0,0.1,0,0.2c0.6,0,1.3,0,1.9,0
		c0-0.1,0-0.1,0-0.2c0-0.3,0-0.6,0-0.9c0-0.3,0.2-0.6,0.5-0.7c0.2-0.1,0.5-0.1,0.7,0c0.4,0.1,0.6,0.4,0.6,0.8c0,0.3,0,0.6,0,0.8
		c0,0.1,0,0.1,0,0.2c0.1,0,0.2,0,0.4,0c0.3,0,0.6,0.1,0.9,0.4c0.8,1.1,1.5,2.2,2,3.5c0.2,0.5,0.4,1,0.4,1.5c0,0.7,0,1.4,0,2
		c0,0.5-0.3,0.8-0.7,0.9C13.3,14,13.2,14,13.1,14z M10.3,10.3c0-1.5-1.2-2.8-2.7-2.8c-1.7-0.1-2.9,1.3-3,2.7c-0.1,1.7,1.3,2.9,2.7,3
		C9,13.2,10.3,11.8,10.3,10.3z"/>
	<path fill="#FFFFFF" d="M15,4.7C15,4.7,14.9,4.7,15,4.7c-0.1,0.6-0.4,0.9-1,0.9c-0.6,0-1.2,0-1.8,0c-0.6,0-1-0.4-1-1
		c0-1-0.5-1.7-1.3-2.2C9.4,2.1,8.8,1.9,8.2,1.9c-0.6,0-1.3-0.1-1.9,0.1C5.3,2.1,4.5,2.6,4,3.5c-0.2,0.3-0.3,0.6-0.2,1
		c0,0.5-0.3,0.8-0.6,1C3,5.5,2.9,5.6,2.7,5.6c-0.6,0-1.1,0-1.7,0c-0.6,0-0.9-0.4-1-0.8c0,0,0-0.1,0-0.1C0,4.3,0,4,0,3.6
		c0,0,0-0.1,0-0.1c0-0.3,0.1-0.6,0.4-0.9c0.9-1,2-1.7,3.3-2.1C4.7,0.2,5.7,0,6.8,0C8,0,9.1,0,10.3,0.2c1.6,0.3,3,1.1,4.2,2.3
		c0.2,0.2,0.4,0.5,0.4,0.8c0,0.1,0,0.3,0.1,0.4C15,4,15,4.3,15,4.7z"/>
	<path fill="#FFFFFF" d="M7.5,8.4c1,0,1.9,0.8,1.8,1.8c0,1-0.8,1.8-1.8,1.8c-1.1,0-1.9-0.9-1.8-1.9C5.7,9.2,6.5,8.4,7.5,8.4z"/>
</g>
</svg>
