<?xml version="1.0" encoding="utf-8"?>
<!-- Generator: Adobe Illustrator 18.0.0, SVG Export Plug-In . SVG Version: 6.00 Build 0)  -->
<!DOCTYPE svg PUBLIC "-//W3C//DTD SVG 1.1//EN" "http://www.w3.org/Graphics/SVG/1.1/DTD/svg11.dtd">
<svg version="1.1" id="Layer_1" xmlns="http://www.w3.org/2000/svg" xmlns:xlink="http://www.w3.org/1999/xlink" x="0px" y="0px"
	 width="190px" height="215px" viewBox="0 0 190 215" enable-background="new 0 0 190 215" xml:space="preserve">
<polygon fill="#E6881C" points="190,105.6 190,0 0,0 0,215 "/>
<path fill="#FFFFFF" d="M132.5,20.3h-75c-5.2,0-9.4,4.2-9.4,9.4v81.3c0,5.2,4.2,9.4,9.4,9.4h75c5.2,0,9.4-4.2,9.4-9.4V29.6
	C141.9,24.5,137.7,20.3,132.5,20.3z M129.4,107.8H60.6v-75h68.8V107.8z M73.1,76.5h43.8v6.3H73.1V76.5z M73.1,89h43.8v6.3H73.1V89z
	 M79.4,48.4c0,5.2,4.2,9.4,9.4,9.4s9.4-4.2,9.4-9.4S93.9,39,88.8,39S79.4,43.2,79.4,48.4z M95,57.8H82.5c-5.2,0-9.4,2.8-9.4,6.3v6.3
	h31.3V64C104.4,60.6,100.2,57.8,95,57.8z"/>
</svg>
