<?xml version="1.0" encoding="utf-8"?>
<!-- Generator: Adobe Illustrator 17.1.0, SVG Export Plug-In . SVG Version: 6.00 Build 0)  -->
<!DOCTYPE svg PUBLIC "-//W3C//DTD SVG 1.1//EN" "http://www.w3.org/Graphics/SVG/1.1/DTD/svg11.dtd">
<svg version="1.1" id="Layer_1" xmlns="http://www.w3.org/2000/svg" xmlns:xlink="http://www.w3.org/1999/xlink" x="0px" y="0px"
	 viewBox="-102.4 20.9 800 800" enable-background="new -102.4 20.9 800 800" xml:space="preserve">
<circle fill="#133368" cx="297.6" cy="420.9" r="400"/>
<path fill="#FFFFFF" d="M215.6,738.9c2,0,2,0,4,0v-2c4-30,8-58,10-88c0-8,4-14,10-20c16-18,32-38,46-56c8-8,12-18,20-30
	c-10,2-16,4-24,6c24-12,42-28,52-48c12-24,22-48,34-74c2-6,6-14,8-20c-14,6-26,12-38,18c24-20,40-36,50-56c22-40,28-84,36-126
	c-18,12-36,26-54,38c0,0-2,0-2-2c56-46,68-106,70-168c-2,0-4,0-4,0c-2,0-4,2-8,2c-22,8-40,20-54,36c-56,56-94,118-106,192
	c-2-14-6-26-8-38c-2,2-2,4-4,4c-18,28-32,56-42,86c-10,32-12,64-2,96c2,4,2,8,4,12h-2c-6-12-14-24-20-36h-2c-2,20-6,42-8,62
	c0,20,2,38,20,54c-6-2-10-2-14-4c0,2,0,4,0,6c4,16,10,32,16,46c4,10,8,20,6,32c-2,16-2,30-2,46C211.6,718.9,213.6,728.9,215.6,738.9
	z M383.6,198.9c-72,134-122,274-156,416C217.6,524.9,311.6,272.9,383.6,198.9z"/>
</svg>
