<?xml version="1.0" encoding="utf-8"?>
<!-- Generator: Adobe Illustrator 17.1.0, SVG Export Plug-In . SVG Version: 6.00 Build 0)  -->
<!DOCTYPE svg PUBLIC "-//W3C//DTD SVG 1.1//EN" "http://www.w3.org/Graphics/SVG/1.1/DTD/svg11.dtd">
<svg version="1.1" id="Layer_1" xmlns="http://www.w3.org/2000/svg" xmlns:xlink="http://www.w3.org/1999/xlink" x="0px" y="0px"
	 viewBox="-102.4 20.9 800 800" enable-background="new -102.4 20.9 800 800" xml:space="preserve">
<symbol  id="New_Symbol_1" viewBox="-56.8 -75 113.5 150.1">
	<path fill="#FFFFFF" d="M-56.7,0c0,17.8,0,35.5,0,53.3c0,9.4,5.3,17.3,13.9,20.4c2.3,0.8,4.7,1.3,7.1,1.3c18.2,0.1,36.4,0.1,54.6,0
		c0.6,0,1.2-0.3,1.7-0.6C32.4,63.9,44.3,53.5,56.1,43c0.4-0.3,0.6-0.9,0.6-1.4c0-32,0.1-64,0-96c0-11.2-9.6-20.6-20.9-20.6
		c-23.7,0-47.4,0-71,0c-11.6,0-20.7,8.5-21.5,20.1c-0.1,0.8-0.1,1.5-0.1,2.3C-56.7-35.1-56.7-17.6-56.7,0z M16.7,68.9
		c-0.6,0-1,0-1.4,0c-16.8,0-33.7,0-50.5,0c-1,0-1.9-0.1-2.9-0.2c-7.5-1.4-12.5-7.5-12.5-15.3c0-35.6,0-71.2,0-106.8
		c0-0.3,0-0.6,0-0.8c0.3-8.2,7-14.6,15.2-14.6c23.6,0,47.1,0,70.7,0c8.5,0,15.3,6.7,15.3,15.2c0,30.8,0,61.5,0,92.3
		c0,1.1-0.3,1.4-1.3,1.3c-7.6,0-15.3,0-22.9,0c-1.2,0-2.4,0.1-3.6,0.4c-3.9,0.9-6.2,3.9-6.2,7.7c0.1,6.5,0,13,0,19.4
		C16.7,67.9,16.7,68.3,16.7,68.9z"/>
	<path fill="#FFFFFF" d="M39.1,14.7c0-2,0-4,0-6c-26,0-52,0-78.1,0c0,2,0,4,0,6C-13,14.7,13,14.7,39.1,14.7z"/>
	<path fill="#FFFFFF" d="M-39.1-7.7c0,2,0,3.9,0,6c26.1,0,52.1,0,78.2,0c0-2,0-4,0-6C13-7.7-13-7.7-39.1-7.7z"/>
	<path fill="#FFFFFF" d="M-39.1-24.1c0,2.1,0,4,0,6c26.1,0,52.1,0,78.2,0c0-1.9,0-3.9,0-6C13-24.1-13-24.1-39.1-24.1z"/>
</symbol>
<circle fill="#133368" cx="297.6" cy="420.9" r="400"/>
<use xlink:href="#New_Symbol_1"  width="113.5" height="150.1" id="XMLID_1_" x="-56.8" y="-75" transform="matrix(3.7211 0 0 -3.7211 297.6397 420.5697)" overflow="visible"/>
</svg>
