<?xml version="1.0" encoding="utf-8"?>
<!-- Generator: Adobe Illustrator 17.1.0, SVG Export Plug-In . SVG Version: 6.00 Build 0)  -->
<!DOCTYPE svg PUBLIC "-//W3C//DTD SVG 1.1//EN" "http://www.w3.org/Graphics/SVG/1.1/DTD/svg11.dtd">
<svg version="1.1" id="Layer_1" xmlns="http://www.w3.org/2000/svg" xmlns:xlink="http://www.w3.org/1999/xlink" x="0px" y="0px"
	 viewBox="-102.4 20.9 800 800" enable-background="new -102.4 20.9 800 800" xml:space="preserve">
<symbol  id="New_Symbol_3" viewBox="-13.5 -12.5 26.9 25">
	<path fill="#FFFFFF" d="M10.1-12.5c-6.7,0-13.4,0-20.1,0c-0.1,0-0.3,0.1-0.4,0.1c-0.7,0.2-1.2,0.9-1.2,1.7c0,0.9,0,1.7,0,2.6
		c0,0.8,0.1,1.7,0.4,2.4c1,2.7,2.6,5.1,4.1,7.4C-6.8,2.2-6.5,2.4-6,2.5c0.3,0,0.6,0,1,0.1c0,0.1,0,0.2,0,0.3C-5,3.4-5,4-5,4.5
		s0.2,0.8,0.6,1.1C-3.8,6-3.2,6-2.6,5.8C-2,5.5-1.7,5-1.7,4.4c0-0.5,0-1,0-1.5c0-0.1,0-0.3,0-0.4c1.1,0,2.3,0,3.4,0
		c0,0.1,0,0.2,0,0.3c0,0.5,0,1.1,0,1.6c0,0.6,0.3,1,0.8,1.3C3,5.8,3.4,5.9,3.9,5.8C4.7,5.6,5,5.1,5,4.3c0-0.5,0-1,0-1.5
		c0-0.1,0-0.2,0-0.3c0.2,0,0.4,0,0.7,0c0.6,0,1.2-0.2,1.5-0.7c1.4-2,2.7-4,3.6-6.2c0.4-0.9,0.7-1.8,0.8-2.7c0.1-1.2,0.1-2.4,0.1-3.6
		c0-0.8-0.5-1.5-1.2-1.7C10.3-12.4,10.2-12.5,10.1-12.5z M5-5.8c0.1,2.7-2.1,4.9-4.7,5C-2.8-0.6-4.9-3.1-5-5.5
		c-0.1-3.1,2.3-5.2,4.8-5.3C2.8-11,5.1-8.5,5-5.8z"/>
	<path fill="#FFFFFF" d="M13.4,4.2c0-0.1-0.1-0.1-0.1-0.2c-0.2-0.9-0.7-1.4-1.7-1.4s-2.1,0-3.1,0S6.8,3.3,6.8,4.3
		c0,1.8-0.9,3-2.3,3.9c-1,0.6-2,0.9-3.2,1C0.1,9.2-1,9.2-2.1,9c-1.8-0.3-3.3-1.2-4.2-2.8c-0.3-0.5-0.5-1.1-0.4-1.8
		c0-0.9-0.4-1.5-1.1-1.7C-8,2.6-8.3,2.6-8.5,2.6c-1,0-2,0-3.1,0s-1.7,0.7-1.8,1.5c0,0,0,0.1-0.1,0.1c0,0.6,0,1.3,0,1.9
		c0,0.1,0.1,0.2,0.1,0.2c0,0.6,0.2,1.2,0.6,1.6c1.6,1.8,3.5,3.1,5.8,3.8c1.9,0.6,3.8,0.8,5.7,0.8c2.1,0.1,4.1,0,6.2-0.4
		c2.9-0.5,5.4-1.9,7.5-4c0.4-0.4,0.6-0.9,0.7-1.4c0-0.2,0.1-0.5,0.1-0.7C13.4,5.4,13.4,4.8,13.4,4.2z"/>
	<path fill="#FFFFFF" d="M0-2.5c1.8,0,3.3-1.4,3.3-3.3S1.9-9.1,0-9.1s-3.3,1.6-3.3,3.3C-3.3-4-1.8-2.5,0-2.5z"/>
</symbol>
<circle fill="#133368" cx="297.6" cy="420.9" r="400"/>
<use xlink:href="#New_Symbol_3"  width="26.9" height="25" x="-13.5" y="-12.5" transform="matrix(19.8227 0 0 -19.8227 295.6552 420.927)" overflow="visible"/>
</svg>
