<?xml version="1.0" encoding="utf-8"?>
<!-- Generator: Adobe Illustrator 17.1.0, SVG Export Plug-In . SVG Version: 6.00 Build 0)  -->
<!DOCTYPE svg PUBLIC "-//W3C//DTD SVG 1.1//EN" "http://www.w3.org/Graphics/SVG/1.1/DTD/svg11.dtd">
<svg version="1.1" id="Layer_1" xmlns="http://www.w3.org/2000/svg" xmlns:xlink="http://www.w3.org/1999/xlink" x="0px" y="0px"
	 viewBox="0 0 20 20" enable-background="new 0 0 20 20" xml:space="preserve">
<g>
	<g>
		<path fill="#E6881C" d="M3.8,7.2C4.6,6.5,5.4,6,6.4,5.7c1.1-0.4,2.3-0.4,3.4-0.1c0.1,0,0.2,0,0.3-0.1c1.2-1.6,2.3-3.3,3.5-4.9
			c0.1-0.2,0.3-0.3,0.5-0.5c0.3-0.2,0.6-0.2,0.8,0.1c0.7,0.7,1.4,1.5,2.2,2.2c0.9,0.9,1.8,1.8,2.7,2.7C20,5.4,20.1,5.7,19.9,6
			c-0.1,0.2-0.3,0.3-0.4,0.4c-1.6,1.1-3.3,2.3-4.9,3.4c-0.1,0.1-0.2,0.2-0.1,0.3c0.5,2.2,0,4.2-1.5,5.9c0,0-0.1,0.1-0.1,0.1
			c0,0,0,0,0,0C9.8,13.2,6.8,10.2,3.8,7.2z M12.5,7c1.2-1.1,2.4-2.2,3.5-3.2c-0.4-0.5-0.9-0.9-1.3-1.4c-1,1.3-2,2.5-2.9,3.7
			C12,6.4,12.2,6.7,12.5,7z M10.9,8c-0.2-0.2-0.4-0.5-0.6-0.7c-0.1-0.1-0.2-0.1-0.3-0.1c-0.5,0-1,0.2-1.5,0.4C8.1,7.7,7.7,8,7.4,8.2
			c0.5,0.5,1,0.9,1.5,1.4C9.5,9,10.1,8.3,10.9,8z"/>
		<path fill="#E6881C" d="M6.5,11.5c0.7,0.7,1.3,1.3,2,2C5.7,15.7,2.9,17.8,0,20c0,0,0,0,0,0C2.2,17.1,4.3,14.3,6.5,11.5z"/>
	</g>
</g>
</svg>
