<?xml version="1.0" encoding="utf-8"?>
<!-- Generator: Adobe Illustrator 17.1.0, SVG Export Plug-In . SVG Version: 6.00 Build 0)  -->
<!DOCTYPE svg PUBLIC "-//W3C//DTD SVG 1.1//EN" "http://www.w3.org/Graphics/SVG/1.1/DTD/svg11.dtd">
<svg version="1.1" id="Layer_1" xmlns="http://www.w3.org/2000/svg" xmlns:xlink="http://www.w3.org/1999/xlink" x="0px" y="0px"
	 viewBox="-102.4 20.9 800 800" enable-background="new -102.4 20.9 800 800" xml:space="preserve">
<symbol  id="New_Symbol_4" viewBox="-14.9 -11.7 29.8 23.4">
	<g>
		<path fill="#FFFFFF" d="M-1.6,11.7c1.6-1,3.2-2.1,4.8-3.2c0.6-0.4,0.7-0.8,0.3-1.4C3.3,6.9,3.2,6.8,3.1,6.6C1.1,8-1,9.4-3.1,10.8
			c0.3,0.3,0.5,0.6,0.8,0.9C-2.1,11.7-1.9,11.7-1.6,11.7z"/>
		<path fill="#FFFFFF" d="M14.9-5.8c-0.4-0.7-0.9-1.4-1.3-2.1c-0.3-0.5-0.7-0.5-1.1-0.2c0.7,1,1.4,2,2.1,3.1
			c0.1-0.1,0.2-0.2,0.3-0.3C14.9-5.5,14.9-5.6,14.9-5.8z"/>
		<path fill="#FFFFFF" d="M-3.6,10.1c2.1-1.4,4.1-2.8,6.2-4.2C2,5,1.4,4.1,0.8,3.1C1.4,2.7,2,2.3,2.5,1.9c0.3,0.2,0.6,0.4,0.9,0.5
			c0.1,0,0.3-0.1,0.5-0.2c-0.7-1.1-1.3-2.1-2-3.1C1.4-0.7,1.3-0.4,1.7,0.4C1.1,0.8,0.4,1.2-0.2,1.7c-0.7-1-1.3-1.9-2-2.9
			c-2,1.4-4.1,2.8-6.2,4.2C-6.8,5.3-5.2,7.7-3.6,10.1z"/>
		<path fill="#FFFFFF" d="M5.1,1.4c2.8-1.9,5.5-3.7,8.3-5.6c-0.7-1-1.4-2.1-2.1-3.1C8.6-5.4,5.8-3.6,3-1.7C3.7-0.7,4.4,0.4,5.1,1.4z
			"/>
		<path fill="#FFFFFF" d="M-8.8,2.3c2.1-1.4,4.1-2.8,6.2-4.2C-2.7-2.1-2.9-2.3-3-2.5c-0.3-0.3-0.7-0.4-1.1-0.2
			C-5.8-1.6-7.4-0.5-9,0.6c-0.4,0.3-0.5,0.7-0.2,1.1C-9.1,1.9-9,2.1-8.8,2.3z"/>
	</g>
	<polygon fill="#FFFFFF" points="-0.1,-7.7 -12.8,-7.7 -14.9,-9.7 -14.9,-11.7 2.1,-11.7 2.1,-9.7 	"/>
</symbol>
<circle fill="#133368" cx="297.6" cy="420.9" r="400"/>
<use xlink:href="#New_Symbol_4"  width="29.8" height="23.4" x="-14.9" y="-11.7" transform="matrix(20.0671 0 0 -20.0671 298.64 378.947)" overflow="visible"/>
</svg>
