<?xml version="1.0" encoding="utf-8"?>
<!-- Generator: Adobe Illustrator 18.0.0, SVG Export Plug-In . SVG Version: 6.00 Build 0)  -->
<!DOCTYPE svg PUBLIC "-//W3C//DTD SVG 1.1//EN" "http://www.w3.org/Graphics/SVG/1.1/DTD/svg11.dtd">
<svg version="1.1" id="Layer_1" xmlns="http://www.w3.org/2000/svg" xmlns:xlink="http://www.w3.org/1999/xlink" x="0px" y="0px"
	 width="34.2px" height="32px" viewBox="0 0 34.2 32" enable-background="new 0 0 34.2 32" xml:space="preserve">
<g>
	<path fill="#FFFFFF" d="M30,32c-8.6,0-17.2,0-25.8,0c-0.2-0.1-0.4-0.1-0.5-0.2c-0.9-0.3-1.5-1.1-1.5-2.2c0-1.1,0-2.2,0-3.3
		c0-1.1,0.2-2.1,0.6-3.1C4.1,19.8,6,16.7,8,13.7c0.3-0.5,0.8-0.8,1.4-0.8c0.4,0,0.8-0.1,1.3-0.1c0-0.1,0-0.3,0-0.4
		c0-0.7,0-1.4,0-2.1c0-0.6,0.2-1.1,0.8-1.4c0.7-0.5,1.5-0.5,2.3-0.2c0.7,0.2,1.1,0.8,1.2,1.6c0,0.6,0,1.3,0,1.9c0,0.2,0,0.3,0,0.5
		c1.5,0,2.9,0,4.3,0c0-0.1,0-0.3,0-0.4c0-0.7,0-1.4,0-2c0-0.8,0.4-1.3,1.1-1.6c0.6-0.2,1.1-0.3,1.7-0.1c1,0.3,1.4,0.8,1.4,1.8
		c0,0.6,0,1.3,0,1.9c0,0.1,0,0.2,0,0.4c0.3,0,0.6,0,0.8,0c0.8,0,1.5,0.3,2,0.9c1.8,2.5,3.4,5.1,4.6,7.9c0.5,1.1,0.9,2.3,1,3.5
		c0.1,1.5,0.1,3.1,0.1,4.6c0,1.1-0.6,1.9-1.6,2.1C30.3,31.9,30.2,32,30,32z M23.5,23.5c0.1-3.4-2.7-6.3-6.1-6.5
		c-4-0.2-6.7,3-6.8,6.1c-0.2,3.9,3,6.7,6.1,6.8C20.6,30.1,23.7,26.9,23.5,23.5z"/>
	<path fill="#FFFFFF" d="M34.2,10.7c0,0.1-0.1,0.1-0.1,0.2c-0.2,1.1-0.9,1.8-2.1,1.8c-1.3,0-2.7,0-4,0c-1.3,0-2.2-0.9-2.2-2.2
		c0-2.2-1.2-3.8-3-5c-1.2-0.8-2.6-1.1-4.1-1.3c-1.4-0.1-2.9-0.1-4.3,0.1C12.1,4.9,10.3,6,9.1,8.1c-0.4,0.7-0.6,1.5-0.6,2.3
		c0,1.1-0.6,1.9-1.4,2.2c-0.3,0.1-0.6,0.2-0.9,0.2c-1.3,0-2.6,0-3.9,0c-1.4,0-2.2-0.9-2.2-1.9c0-0.1-0.1-0.1-0.1-0.2
		c0-0.8,0-1.6,0-2.4C0,8.2,0.1,8.1,0.1,8c0-0.8,0.3-1.5,0.8-2C3,3.7,5.4,2,8.3,1.1c2.4-0.7,4.8-1,7.3-1.1c2.6-0.1,5.3,0,7.9,0.5
		c3.8,0.7,6.9,2.4,9.6,5.2c0.5,0.5,0.8,1.1,1,1.8c0.1,0.3,0.1,0.6,0.2,0.9C34.2,9.1,34.2,9.9,34.2,10.7z"/>
	<path fill="#FFFFFF" d="M17.1,19.2c2.3,0,4.2,1.8,4.2,4.2c0,2.4-1.8,4.2-4.2,4.2c-2.5,0-4.2-2-4.2-4.3
		C12.9,21.1,14.8,19.2,17.1,19.2z"/>
</g>
</svg>
