<?xml version="1.0" encoding="utf-8"?>
<!-- Generator: Adobe Illustrator 18.0.0, SVG Export Plug-In . SVG Version: 6.00 Build 0)  -->
<!DOCTYPE svg PUBLIC "-//W3C//DTD SVG 1.1//EN" "http://www.w3.org/Graphics/SVG/1.1/DTD/svg11.dtd">
<svg version="1.1" id="Layer_1" xmlns="http://www.w3.org/2000/svg" xmlns:xlink="http://www.w3.org/1999/xlink" x="0px" y="0px"
	 width="190px" height="214.3px" viewBox="0 0 190 214.3" enable-background="new 0 0 190 214.3" xml:space="preserve">
<polygon fill="#E6881C" points="190,104.9 190,0 0,0 0,214.3 "/>
<g>
	<path fill="#FFFFFF" d="M157.1,26.2v-8.4l-1.2-0.5c-0.4-0.2-10.3-4-23.5-4c-14.1,0-26.3,4.3-36.3,12.8C86.2,17.6,74,13.3,59.8,13.3
		c-13.2,0-23.1,3.8-23.5,4l-1.2,0.5v7.8c-4,0.7-6.5,2.1-6.5,4.3c0,11.4,0,80.4,0,80.4h59.2c2,1.8,5,3,8.4,3c3.4,0,6.3-1.2,8.4-3
		h57.7c0,0,0-76.4,0-80.4C162.4,28.1,160.3,26.9,157.1,26.2z M95.4,104c-4.9-2-21.9-8.5-38.8-8.5c-6.7,0-12.6,1-17.7,3.1V20.5
		c2.9-1,11-3.3,20.9-3.3c13,0,24.2,3.9,33.4,11.6v46.6l2.3-2.5V104z M153.2,98.6c-5.4-2.2-11.7-3.3-18.6-3.3
		c-17,0-33.1,6.5-37.9,8.6v-31l2.3,2.5V28.8c9.1-7.7,20.3-11.6,33.4-11.6c9.9,0,18,2.3,20.9,3.3V98.6z"/>
	<path fill="#FFFFFF" d="M70.1,33.2c9.1,1.7,15.3,5.1,15.4,5.1l1.5-2.7c-0.4-0.3-7.1-3.9-16.9-5.6L70.1,33.2L70.1,33.2z"/>
	<path fill="#FFFFFF" d="M70.1,42c9.1,1.7,15.3,5.1,15.4,5.1l1.5-2.7c-0.4-0.3-7.1-3.9-16.9-5.6L70.1,42L70.1,42z"/>
	<path fill="#FFFFFF" d="M70.1,50.3c9.1,1.7,15.3,5.1,15.4,5.1l1.5-2.7c-0.4-0.3-7.1-3.9-16.9-5.6L70.1,50.3L70.1,50.3z"/>
	<path fill="#FFFFFF" d="M70.1,59.3c9.1,1.7,15.3,5.1,15.4,5.1l1.5-2.7c-0.4-0.3-7.1-3.9-16.9-5.6L70.1,59.3L70.1,59.3z"/>
	<path fill="#FFFFFF" d="M46.5,65.3l0.8,3c20-5.3,38,4.5,38.2,4.6l1.5-2.7C86.2,69.7,67.7,59.6,46.5,65.3z"/>
	<path fill="#FFFFFF" d="M46.5,73.9l0.8,3c20-5.3,38,4.5,38.2,4.6l1.5-2.7C86.2,78.4,67.7,68.3,46.5,73.9z"/>
	<path fill="#FFFFFF" d="M46.5,82.5l0.8,3c20-5.3,38,4.5,38.2,4.6l1.5-2.7C86.2,87,67.7,76.9,46.5,82.5z"/>
	<path fill="#FFFFFF" d="M107.6,38.6c0.2-0.1,18.2-9.9,38.2-4.6l0.8-3c-21.2-5.6-39.7,4.5-40.5,4.9L107.6,38.6z"/>
	<path fill="#FFFFFF" d="M106.1,44.7l1.5,2.7c0.2-0.1,18.2-9.9,38.2-4.6l0.8-3C125.3,34.1,106.8,44.2,106.1,44.7z"/>
	<path fill="#FFFFFF" d="M106.1,52.9l1.5,2.7c0.2-0.1,18.2-9.9,38.2-4.6l0.8-3C125.3,42.4,106.8,52.5,106.1,52.9z"/>
	<path fill="#FFFFFF" d="M106.1,62l1.5,2.7c0.2-0.1,18.2-9.9,38.2-4.6l0.8-3C125.3,51.5,106.8,61.6,106.1,62z"/>
	<path fill="#FFFFFF" d="M106.1,70.4l1.5,2.7c0.2-0.1,18.2-9.9,38.2-4.6l0.8-3C125.3,59.9,106.8,70,106.1,70.4z"/>
	<path fill="#FFFFFF" d="M106.1,79l1.5,2.7c0.2-0.1,18.2-9.9,38.2-4.6l0.8-3C125.3,68.5,106.8,78.6,106.1,79z"/>
	<path fill="#FFFFFF" d="M106.1,87.7l1.5,2.7c0.2-0.1,18.2-9.9,38.2-4.6l0.8-3C125.3,77.1,106.8,87.2,106.1,87.7z"/>
	<path fill="#FFFFFF" d="M66.8,58.8V29.5c0,0-5-0.6-10.1-0.4c-5.1,0.1-10.1,1.7-10.1,1.7v29.3c0,0,4.2-1.2,9.6-1.6
		C61.5,58,66.8,58.8,66.8,58.8z"/>
</g>
</svg>
