<?xml version="1.0" encoding="utf-8"?>
<!-- Generator: Adobe Illustrator 17.1.0, SVG Export Plug-In . SVG Version: 6.00 Build 0)  -->
<!DOCTYPE svg PUBLIC "-//W3C//DTD SVG 1.1//EN" "http://www.w3.org/Graphics/SVG/1.1/DTD/svg11.dtd">
<svg version="1.1" id="Layer_1" xmlns="http://www.w3.org/2000/svg" xmlns:xlink="http://www.w3.org/1999/xlink" x="0px" y="0px"
	 viewBox="0 0 40 40" enable-background="new 0 0 40 40" xml:space="preserve">
<symbol  id="New_Symbol_2" viewBox="-12.5 -9.8 25.1 19.6">
	<path fill="#FFFFFF" d="M12.5-7.4C12.5-7.3,12.5-7.3,12.5-7.4l0,14.3c0,0.2-0.1,0.4-0.3,0.5c0,0-1.1,0.4-2.7,0.7V9
		c0,0.2-0.2,0.4-0.4,0.5c0,0-1,0.3-2.5,0.3C4.9,9.8,2.3,9.4,0,7.5c-2.3,1.9-4.9,2.3-6.7,2.3c-1.4,0-2.4-0.3-2.5-0.3
		C-9.3,9.5-9.5,9.3-9.5,9V8.1c-1.6-0.3-2.6-0.7-2.7-0.7c-0.2-0.1-0.3-0.3-0.3-0.5V-7.3c0,0,0,0,0,0c0,0,0,0,0,0l0-1.4
		c0-0.2,0.1-0.3,0.2-0.4c0.1-0.1,0.3-0.1,0.5,0c0,0,4.1,1.7,11.7-0.6c0,0,0.1,0,0.1,0c0,0,0.1,0,0.1,0c7.7,2.3,11.6,0.6,11.7,0.6
		c0.2-0.1,0.3-0.1,0.5,0c0.1,0.1,0.2,0.3,0.2,0.4L12.5-7.4z M11.5,6.6V-6.7C8.2-6.1,5.7-6.1,3.9-6.4C5.1-6,6.8-5.7,9-5.7
		c0.3,0,0.5,0.2,0.5,0.5V7.1C10.4,6.9,11.1,6.7,11.5,6.6z M8.5,8.6V-4.7C4.1-4.8,1.7-6,0.5-6.9V6.6C3.7,9.3,7.3,8.9,8.5,8.6z
		 M-8.5,8.6c1.2,0.2,4.9,0.6,8-2V-6.9c-1.2,0.9-3.6,2.1-8,2.2V8.6z M-11.5,6.6c0.4,0.1,1.1,0.3,2,0.5V-5.2c0-0.3,0.2-0.5,0.5-0.5
		c2.2,0,3.9-0.3,5.1-0.7c-1.8,0.2-4.3,0.2-7.6-0.3V6.6z"/>
</symbol>
<g>
	<circle fill="#C7B299" cx="20" cy="20" r="20"/>
	<path fill="none" stroke="#000000" stroke-miterlimit="10" d="M11.5,11.9"/>
	
		<use xlink:href="#New_Symbol_2"  width="25.1" height="19.6" x="-12.5" y="-9.8" transform="matrix(1 0 0 -1 20.4961 19.5918)" overflow="visible"/>
</g>
</svg>
