<?xml version="1.0" encoding="utf-8"?>
<!-- Generator: Adobe Illustrator 17.1.0, SVG Export Plug-In . SVG Version: 6.00 Build 0)  -->
<!DOCTYPE svg PUBLIC "-//W3C//DTD SVG 1.1//EN" "http://www.w3.org/Graphics/SVG/1.1/DTD/svg11.dtd">
<svg version="1.1" id="Layer_1" xmlns="http://www.w3.org/2000/svg" xmlns:xlink="http://www.w3.org/1999/xlink" x="0px" y="0px"
	 viewBox="0 0 341.1 74.4" enable-background="new 0 0 341.1 74.4" xml:space="preserve">
<path fill="#FFFFFF" d="M165.6,7.2V9c-2.1,0.6-3.2,2.1-3.2,4.5v13.8h-2.6V13.5c0-0.6,0.1-1.2,0.2-1.7c0.1-0.5,0.3-0.9,0.5-1.2
	c0.4-0.6,0.8-1,1.1-1.2l0.2-0.1V9.2h-11v-2H165.6z"/>
<path fill="#FFFFFF" d="M170.7,12.7H169l-0.6-8.2h2.9L170.7,12.7z M176.4,12.7h-1.6l-0.6-8.2h2.9L176.4,12.7z"/>
<path fill="#FFFFFF" d="M184.1,27.3h-2.6v-20h2.6V27.3z"/>
<path fill="#FFFFFF" d="M191.7,7.2l2.4,9c0.3,1.3,0.9,4.1,1.9,8.3c3-1.1,4.8-4,5.2-8.6l0.8-8.7h2.6l-0.8,8.7
	c-0.1,1.3-0.3,2.5-0.6,3.4c-0.3,1-0.6,1.7-0.9,2.3c-0.3,0.6-0.7,1.2-1.3,1.8c-0.5,0.6-1.1,1.2-1.8,1.6c-0.7,0.5-1.5,0.9-2.5,1.3
	c-1,0.4-2.1,0.6-3.3,0.8l-5.7,0.8v-2l6.1-0.9l-4.7-17.9H191.7z"/>
<path fill="#FFFFFF" d="M224.7,25.3c2.1,0,3.9-0.8,5.3-2.3c1.4-1.5,2.2-3.9,2.5-7l0.8-8.7h2.6l-0.8,8.7c-0.1,1.3-0.3,2.5-0.6,3.6
	c-0.3,1-0.7,1.9-1,2.5c-0.3,0.7-0.8,1.3-1.4,2s-1.2,1.2-1.9,1.7c-0.7,0.5-1.6,0.8-2.6,1.1c-1,0.3-2.1,0.4-3.3,0.4h-6.6l-1.7-20h2.6
	l0.9,11.2l2.1-0.7c1.6-0.5,2.5-2,2.7-4.3l0.6-6.2h2.6l-0.5,5.3c-0.1,0.7-0.2,1.3-0.3,1.9c-0.1,0.6-0.3,1.2-0.6,1.8
	c-0.3,0.6-0.6,1.1-0.9,1.6c-0.4,0.5-0.9,0.9-1.5,1.3c-0.6,0.4-1.3,0.7-2.1,0.9l-2,0.5l0.4,4.8H224.7z"/>
<path fill="#FFFFFF" d="M242.3,27.3h-2.6v-20h2.6V27.3z"/>
<path fill="#FFFFFF" d="M245.5,7c1.4-0.1,2.7-0.1,3.9-0.1s2.1,0.1,2.9,0.2s1.5,0.4,2.1,0.7s1.2,0.7,1.7,1.2c1,1,1.4,2.5,1.4,4.3v14
	h-2.6v-14c0-2.8-1.9-4.1-5.6-4.1c-1.1,0-2.4,0-3.9,0.1V7z"/>
<path fill="#FFFFFF" d="M276.6,10.8c0.3,0.7,0.4,1.5,0.4,2.5v14h-2.6v-14c0-2.8-1.9-4.1-5.6-4.1c-1.6,0-3.4,0.1-5.4,0.2l-1.1,0.1
	V7.1c2.4-0.2,4.6-0.2,6.6-0.2s3.7,0.3,4.9,0.9C275.2,8.4,276.1,9.4,276.6,10.8z M264.9,27.3h-2.6V14.5h2.6V27.3z"/>
<path fill="#FFFFFF" d="M304.4,10.8c0.3,0.7,0.4,1.5,0.4,2.5v14h-2.6v-14c0-2.8-1.9-4.1-5.6-4.1c-1.6,0-3.4,0.1-5.4,0.2l-1.1,0.1
	V7.1c2.4-0.2,4.6-0.2,6.6-0.2s3.7,0.3,4.9,0.9C303,8.4,303.9,9.4,304.4,10.8z M292.7,27.3h-2.6V14.5h2.6V27.3z"/>
<path fill="#FFFFFF" d="M310.8,7.2h10.5v2l-2.7,10.2l-1.6,7.8h-2.6l1.6-7.8l2.7-10.2h-10.5V3.1h2.6V7.2z"/>
<path fill="#FFFFFF" d="M338.5,7.2v6.5c0,0.8,0,1.6-0.1,2.2c-0.1,0.6-0.2,1.3-0.5,1.9c-0.5,1.4-1.5,2.4-3,3l3.9,6.4h-2.9l-4.9-8.4
	l-2.4-3.5c-0.4,0.2-0.7,0.3-0.9,0.5c-1,0.8-1.5,2.1-1.5,4v7.4h-2.6v-6.5c0-2.3,0.3-3.9,1-5c0.3-0.4,0.6-0.9,1.1-1.3
	c0.5-0.4,1.1-0.7,1.7-0.9l-3.9-6.3h2.9l4.6,7.7l2.6,4c0.5-0.3,0.9-0.6,1.2-1s0.5-0.8,0.6-1.4s0.3-1.2,0.3-2V7.2H338.5z"/>
<path fill="#FFFFFF" d="M157.1,62.5h10.7V65h-13.5V40.8h2.8V62.5z"/>
<path fill="#FFFFFF" d="M190,65h-2.9l-3-7.7h-9.7l-3,7.7h-2.8l9.6-24.3h2.4L190,65z M183.2,54.8l-2.8-7.5c-0.4-1-0.8-2.1-1.1-3.5
	c-0.2,1-0.6,2.2-1,3.5l-2.8,7.5H183.2z"/>
<path fill="#FFFFFF" d="M214.4,65h-2.8l-4.9-16.2c-0.3-0.8-0.5-1.7-0.8-2.8s-0.4-1.7-0.4-1.9c-0.3,1.5-0.6,3.1-1.2,4.8L199.6,65
	h-2.8l-6.4-24.2h3l3.8,14.9c0.5,2.1,0.9,4,1.2,5.7c0.3-2,0.7-3.9,1.3-5.9l4.3-14.7h3l4.5,14.8c0.5,1.7,1,3.6,1.3,5.8
	c0.2-1.6,0.6-3.5,1.2-5.7l3.8-14.9h3L214.4,65z"/>
<path fill="#FFFFFF" d="M232.2,52.9c0-4,1-7,2.9-9.2c1.9-2.2,4.7-3.3,8.2-3.3c3.5,0,6.3,1.1,8.2,3.3c2,2.2,2.9,5.2,2.9,9.1
	c0,3.9-1,6.9-2.9,9.1c-2,2.2-4.7,3.3-8.2,3.3c-3.5,0-6.3-1.1-8.2-3.3C233.2,59.9,232.2,56.9,232.2,52.9z M251.5,52.9
	c0-3.3-0.7-5.7-2-7.4c-1.4-1.7-3.4-2.5-6.1-2.5s-4.7,0.8-6.1,2.5s-2.1,4.2-2.1,7.4s0.7,5.7,2.1,7.4s3.4,2.5,6.1,2.5
	c2.7,0,4.7-0.8,6.1-2.5C250.8,58.7,251.5,56.2,251.5,52.9z"/>
<path fill="#FFFFFF" d="M273.3,43.3h-10.7v8.8h10v2.5h-10V65h-2.8V40.8h13.5V43.3z"/>
<path fill="#FFFFFF" d="M290.8,43.3h-10.7v8.8h10v2.5h-10V65h-2.8V40.8h13.5V43.3z"/>
<path fill="#FFFFFF" d="M297.6,65h-2.8V40.8h2.8V65z"/>
<path fill="#FFFFFF" d="M314.1,65.3c-3.6,0-6.3-1.1-8.3-3.2s-2.9-5.2-2.9-9.2c0-0.1,0-0.1,0-0.2c0-2.4,0.5-4.5,1.4-6.4
	c0.9-1.9,2.3-3.3,4-4.3s3.8-1.5,6.1-1.5c0.1,0,0.1,0,0.1,0c2.5,0,4.7,0.5,6.6,1.4l-1.2,2.4c-1.8-0.9-3.7-1.3-5.5-1.3
	c-2.7,0-4.8,0.9-6.3,2.7c-1.5,1.8-2.3,4.2-2.3,7.3c0,3.1,0.7,5.5,2.2,7.3c1.5,1.7,3.6,2.6,6.4,2.6c1.7,0,3.6-0.3,5.8-0.9v2.5
	C318.6,65,316.5,65.3,314.1,65.3z"/>
<path fill="#FFFFFF" d="M339.1,43.3h-10.7v7.8h10v2.5h-10v8.9h10.7V65h-13.5V40.8h13.5V43.3z"/>
<path fill="#FFFFFF" d="M73.3,65c0.7,0,0.5-1.1,0.9-2.1c0.4-0.8-0.2-2.8-0.2-6.1V13.7c0-3.4,0.6-5.4,0.2-6.3s-0.7-1.2-1.8-1.8
	c0,0,0.4,0.4,0.3,0.4H55v16h-1.6c-0.9-5-2.2-8.2-3.9-10.3c-1.7-2.1-4.1-3.2-7.2-4.2C40.5,6.9,37.1,7,32.1,7H25v25h1.6
	c4.2,0,7.2-0.6,9-3.2S38.7,24,39.3,18H40v35h-0.7c-0.4-3-1.2-7.4-2.4-9.8c-1.2-2.4-2.9-4.3-4.5-5.1c-1.6-0.8-4.3-1.5-7.3-1.5V55
	c0,3.6,0.3,5.8,0.6,6.6c0.3,0.8,1,1.8,1.8,2.3c0.8,0.5,2.3,1.1,4.1,1.1h3.9c6.1,0,11-1.3,14.7-4.1c3.7-2.8,6.3-6.9,8-12.9H60
	l-2.5,17H73.3z"/>
<path fill="#FFFFFF" d="M114.2,62.9c0.4-0.8,0.8-2.8,0.8-6.1V36H91v20.8c0,3.4,0.3,5.4,0.7,6.3c0.3,0.7,1,1.9,1.9,1.9h18.7
	C112.9,65,113.8,63.9,114.2,62.9z"/>
<path fill="#FFFFFF" d="M93.8,5.7c-0.8,0.5-1.6,1-2.1,2.1c-0.4,0.8-0.7,2.6-0.7,5.9V32h24V13.7c0-3.4-0.5-5.4-0.8-6.3
	c-0.4-0.8-1.2-1.2-2.3-1.8c0,0-0.2,0.4-0.2,0.4H93.9C93.9,6,93.8,5.6,93.8,5.7z"/>
<path fill="#FFFFFF" d="M132.7,5.7c-0.8,0.5-2.1,1-2.6,2.1c-0.4,0.8-1.1,2.6-1.1,5.9v43.1c0,3.4,0.8,5.4,1.1,6.3
	c0.3,0.7,1.5,1.9,2.3,1.9h6.6V6h-6.1C132.8,6,132.7,5.6,132.7,5.7z"/>
<path fill="#FFFFFF" d="M9.3,62.9c0.4-0.8,0.7-2.8,0.7-6.1V13.7c0-3-0.3-4.8-0.5-5.5C9.2,7.1,8.5,6.6,7.6,6C7.4,5.8,7.1,6,6.8,6H0
	v59h7.4C8.1,65,8.9,63.9,9.3,62.9z"/>
<line fill="none" stroke="#FFFFFF" stroke-width="2" stroke-miterlimit="10" x1="152" y1="35" x2="339" y2="35"/>
</svg>
