<?xml version="1.0" encoding="utf-8"?>
<!-- Generator: Adobe Illustrator 17.1.0, SVG Export Plug-In . SVG Version: 6.00 Build 0)  -->
<!DOCTYPE svg PUBLIC "-//W3C//DTD SVG 1.1//EN" "http://www.w3.org/Graphics/SVG/1.1/DTD/svg11.dtd">
<svg version="1.1" id="Layer_1" xmlns="http://www.w3.org/2000/svg" xmlns:xlink="http://www.w3.org/1999/xlink" x="0px" y="0px"
	 viewBox="0 0 355.3 65.2" enable-background="new 0 0 355.3 65.2" xml:space="preserve">
<g>
	<g>
		<g>
			<path fill="#6B6B6B" d="M173.5,4.3v1.9c-2.2,0.6-3.4,2.2-3.4,4.7v14.4h-2.7V10.8c0-0.6,0.1-1.2,0.2-1.8c0.2-0.5,0.3-1,0.6-1.3
				c0.4-0.6,0.8-1,1.2-1.2l0.2-0.1V6.4h-11.5V4.3H173.5z"/>
			<path fill="#6B6B6B" d="M178.8,10.1h-1.7l-0.7-8.6h3L178.8,10.1z M184.8,10.1h-1.7l-0.7-8.6h3L184.8,10.1z"/>
			<path fill="#6B6B6B" d="M192.9,25.3h-2.7v-21h2.7V25.3z"/>
			<path fill="#6B6B6B" d="M200.9,4.3l2.5,9.5c0.3,1.4,1,4.3,2,8.7c3.2-1.2,5-4.2,5.4-9l0.8-9.1h2.7l-0.8,9.1
				c-0.1,1.4-0.3,2.6-0.6,3.6c-0.3,1-0.6,1.8-0.9,2.4c-0.3,0.6-0.8,1.3-1.3,1.9c-0.6,0.7-1.2,1.2-1.9,1.7c-0.7,0.5-1.6,0.9-2.6,1.3
				c-1,0.4-2.2,0.7-3.4,0.8l-6,0.8V24l6.4-1l-4.9-18.7H200.9z"/>
			<path fill="#6B6B6B" d="M235.4,23.2c2.2,0,4.1-0.8,5.5-2.4s2.4-4,2.7-7.3l0.8-9.1h2.7l-0.8,9.1c-0.1,1.4-0.3,2.7-0.7,3.8
				c-0.3,1.1-0.7,2-1,2.7c-0.4,0.7-0.8,1.4-1.4,2.1c-0.6,0.7-1.3,1.3-2,1.7c-0.7,0.5-1.6,0.9-2.7,1.2c-1.1,0.3-2.2,0.4-3.5,0.4h-7
				l-1.7-21h2.7l1,11.7l2.2-0.7c1.7-0.5,2.6-2.1,2.9-4.5l0.6-6.5h2.7l-0.5,5.5c-0.1,0.7-0.2,1.4-0.3,2c-0.1,0.6-0.3,1.2-0.6,1.8
				c-0.3,0.6-0.6,1.2-1,1.7c-0.4,0.5-0.9,0.9-1.5,1.3s-1.4,0.7-2.2,0.9l-2.1,0.6l0.4,5.1H235.4z"/>
			<path fill="#6B6B6B" d="M253.9,25.3h-2.7v-21h2.7V25.3z"/>
			<path fill="#6B6B6B" d="M257.2,4.1c1.5-0.1,2.9-0.1,4.1-0.1s2.2,0.1,3,0.2c0.8,0.1,1.5,0.4,2.2,0.7s1.3,0.7,1.8,1.3
				c1,1.1,1.5,2.6,1.5,4.5v14.6h-2.7V10.6c0-2.9-1.9-4.3-5.8-4.3c-1.2,0-2.5,0-4.1,0.1V4.1z"/>
			<path fill="#6B6B6B" d="M289.8,8.1c0.3,0.8,0.4,1.6,0.4,2.6v14.6h-2.7V10.6c0-2.9-1.9-4.3-5.8-4.3c-1.7,0-3.6,0.1-5.7,0.2
				l-1.1,0.1V4.2c2.5-0.2,4.8-0.2,6.9-0.2c2.1,0,3.8,0.3,5.2,1C288.4,5.6,289.3,6.6,289.8,8.1z M277.6,25.3h-2.7V11.9h2.7V25.3z"/>
			<path fill="#6B6B6B" d="M319,8.1c0.3,0.8,0.4,1.6,0.4,2.6v14.6h-2.7V10.6c0-2.9-1.9-4.3-5.8-4.3c-1.7,0-3.6,0.1-5.7,0.2L304,6.5
				V4.2c2.5-0.2,4.8-0.2,6.9-0.2c2.1,0,3.8,0.3,5.2,1C317.5,5.6,318.4,6.6,319,8.1z M306.7,25.3H304V11.9h2.7V25.3z"/>
			<path fill="#6B6B6B" d="M325.7,4.3h11v2.1l-2.8,10.7l-1.7,8.2h-2.7l1.7-8.2l2.8-10.7h-11V0h2.7V4.3z"/>
			<path fill="#6B6B6B" d="M354.7,4.3v6.8c0,0.9,0,1.7-0.1,2.3c-0.1,0.6-0.2,1.3-0.5,2c-0.5,1.5-1.5,2.5-3.1,3.1l4.1,6.7h-3
				l-5.1-8.8l-2.5-3.7c-0.4,0.2-0.7,0.3-0.9,0.5c-1,0.8-1.5,2.2-1.5,4.2v7.8h-2.7v-6.8c0-2.4,0.4-4.1,1.1-5.3
				c0.3-0.5,0.7-0.9,1.2-1.3c0.5-0.4,1.1-0.7,1.8-1l-4-6.6h3.1l4.8,8.1l2.7,4.2c0.6-0.3,1-0.7,1.2-1c0.3-0.3,0.5-0.8,0.7-1.4
				s0.3-1.3,0.3-2.1V4.3H354.7z"/>
		</g>
	</g>
	<g>
		<g>
			<path fill="#6B6B6B" d="M164.6,62.2h11.2v2.7h-14.1V39.5h2.9V62.2z"/>
			<path fill="#6B6B6B" d="M199.1,64.9H196l-3.2-8.1h-10.2l-3.1,8.1h-3l10-25.4h2.5L199.1,64.9z M191.9,54.1l-2.9-7.9
				c-0.4-1-0.8-2.2-1.2-3.7c-0.3,1.1-0.6,2.3-1.1,3.7l-3,7.9H191.9z"/>
			<path fill="#6B6B6B" d="M224.7,64.9h-2.9l-5.1-17c-0.3-0.8-0.6-1.8-0.8-2.9s-0.4-1.8-0.5-2c-0.3,1.5-0.7,3.2-1.2,5l-5,16.8h-2.9
				l-6.7-25.3h3.1l4,15.7c0.5,2.2,0.9,4.1,1.2,6c0.3-2.1,0.8-4.1,1.4-6.2l4.5-15.4h3.1l4.8,15.5c0.6,1.8,1,3.8,1.4,6.1
				c0.2-1.6,0.6-3.6,1.2-6l4-15.6h3.1L224.7,64.9z"/>
			<path fill="#6B6B6B" d="M243.3,52.2c0-4.1,1-7.4,3.1-9.6c2-2.3,4.9-3.4,8.6-3.4s6.6,1.2,8.6,3.5c2,2.3,3.1,5.5,3.1,9.6
				s-1,7.3-3.1,9.6c-2.1,2.3-4.9,3.5-8.6,3.5c-3.7,0-6.6-1.1-8.6-3.4C244.3,59.5,243.3,56.3,243.3,52.2z M263.5,52.2
				c0-3.4-0.7-6-2.1-7.8c-1.4-1.8-3.5-2.6-6.3-2.6s-4.9,0.9-6.4,2.7c-1.5,1.8-2.2,4.4-2.2,7.8c0,3.4,0.7,6,2.2,7.8
				c1.5,1.8,3.6,2.7,6.4,2.7s4.9-0.9,6.3-2.7S263.5,55.6,263.5,52.2z"/>
			<path fill="#6B6B6B" d="M286.4,42.1h-11.2v9.3h10.5V54h-10.5v10.8h-2.9V39.5h14.1V42.1z"/>
			<path fill="#6B6B6B" d="M304.7,42.1h-11.2v9.3H304V54h-10.5v10.8h-2.9V39.5h14.1V42.1z"/>
			<path fill="#6B6B6B" d="M311.9,64.9h-2.9V39.5h2.9V64.9z"/>
			<path fill="#6B6B6B" d="M329.2,65.2c-3.7,0-6.6-1.1-8.6-3.4c-2-2.3-3-5.5-3-9.7c0-0.1,0-0.1,0-0.2c0-2.5,0.5-4.8,1.5-6.7
				c1-2,2.4-3.5,4.2-4.5c1.8-1.1,4-1.6,6.4-1.6c0.1,0,0.1,0,0.2,0c2.6,0,5,0.5,7,1.5l-1.2,2.5c-1.9-0.9-3.8-1.4-5.8-1.4
				c-2.8,0-5,0.9-6.6,2.8c-1.6,1.9-2.4,4.4-2.4,7.7c0,3.3,0.8,5.8,2.3,7.6c1.6,1.8,3.8,2.7,6.7,2.7c1.8,0,3.8-0.3,6-1v2.6
				C333.9,64.9,331.7,65.2,329.2,65.2z"/>
			<path fill="#6B6B6B" d="M355.3,42.1h-11.2v8.2h10.5v2.6h-10.5v9.3h11.2v2.6h-14.1V39.5h14.1V42.1z"/>
		</g>
	</g>
	<g>
		<path fill="#143469" d="M76.8,64.7c0.7,0,0.7-1.1,1.1-2.1c0.4-0.8,0-2.9,0-6.3V11.1c0-3.5,0.4-5.7,0-6.6c-0.4-0.9-0.9-1.4-2-2
			c0,0,0.3,0.3,0.3,0.3H58v17h-2.1c-1-5-2.4-8.6-4.1-10.7c-1.8-2.2-4.3-3.5-7.5-4.6c-1.9-0.6-5.4-0.7-10.6-0.7H26v27h1.9
			c4.4,0,7.5-0.8,9.5-3.5s3.2-5.5,3.8-11.5H42v37h-0.9c-0.4-4-1.3-8-2.6-10.5c-1.3-2.5-3.1-4.6-4.8-5.5C32.1,35.9,29,35,26,35v19.4
			c0,3.8,0.4,6.1,0.8,6.9c0.3,0.8,1.1,1.8,1.9,2.3c0.9,0.5,2.4,1.1,4.4,1.1h4.1c6.4,0,11.6-1.5,15.4-4.4c3.9-3,6.6-6.6,8.3-13.6h1.9
			l-2.6,18H76.8z"/>
		<path fill="#143469" d="M119.4,62.6c0.4-0.8,0.6-2.9,0.6-6.3V34.7H95v21.5c0,3.5,0.5,5.6,0.9,6.5c0.3,0.7,1.3,1.9,2.1,1.9h19.6
			C118.3,64.7,119,63.6,119.4,62.6z"/>
		<path fill="#143469" d="M98.2,2.5c-0.9,0.5-1.9,1.1-2.4,2.3C95.5,5.6,95,7.6,95,11.1v19.7h25V11.1c0-3.5-0.2-5.7-0.6-6.6
			c-0.4-0.9-1.2-1.4-2.3-2c0,0,0,0.3,0,0.3H98.4C98.4,2.7,98.3,2.5,98.2,2.5z"/>
		<path fill="#143469" d="M139.1,2.5c-0.9,0.5-2.3,1.1-2.8,2.3c-0.4,0.8-1.3,2.8-1.3,6.2v45.2c0,3.5,0.9,5.6,1.3,6.5
			c0.3,0.7,1.6,1.9,2.5,1.9h7.2v-62h-6.8C139.2,2.7,139.1,2.5,139.1,2.5z"/>
		<path fill="#143469" d="M10,62.6c0.4-0.8,1-2.9,1-6.3V11.1c0-3.1-0.6-5-0.7-5.7C9.9,4.2,9.1,3.5,8.1,2.9c-0.2-0.2-0.7-0.2-1-0.2H0
			v62h7.8C8.5,64.7,9.5,63.6,10,62.6z"/>
	</g>
	<line fill="none" stroke="#143469" stroke-width="2" stroke-miterlimit="10" x1="159" y1="33.7" x2="355" y2="33.7"/>
</g>
</svg>
