<?xml version="1.0" encoding="iso-8859-1"?>
<!-- Generator: Adobe Illustrator 19.1.0, SVG Export Plug-In . SVG Version: 6.00 Build 0)  -->
<svg version="1.1" id="Layer_1" xmlns="http://www.w3.org/2000/svg" xmlns:xlink="http://www.w3.org/1999/xlink" x="0px" y="0px"
	 viewBox="0 0 218.935 92.7" style="enable-background:new 0 0 218.935 92.7;" xml:space="preserve">
<g>
	<path style="fill:#145B94;" d="M22.614,15.299c-1.078,5.467-1.726,9.143-1.942,11.028l-1.134,9.919h20.014l0.144-1.289
		c1.551-13.869,4.296-23.298,8.233-28.287c1.995-2.529,4.081-4.525,6.256-6.008C51.638,0.229,49.021,0,46.351,0
		C32.232,0,19.589,6.315,11.087,16.272c2.64-0.645,5.537-0.973,8.698-0.973H22.614z"/>
	<path style="fill:#145B94;" d="M64.67,3.764c-1.756-0.756-3.567-1.408-5.427-1.945C59.099,1.812,58.956,1.8,58.813,1.8
		c-4.033,0-6.837,2-8.412,5.998s-3.139,13.051-4.689,27.159l-0.54,4.87c-0.104,0.97-0.198,1.902-0.286,2.805
		c0.441-0.378,0.895-0.749,1.377-1.107c4.058-3.008,9.835-4.512,17.331-4.512H75.41c4.44,0,8.975-0.167,13.606-0.501l-2.9,7.365
		l-0.573,1.328c-0.597,1.414-1.361,2.12-2.292,2.12c-0.143,0-0.31-0.012-0.501-0.036c0.262-1.193,0.394-2.148,0.394-2.864
		c0-1.576-0.832-2.56-2.494-2.954c-1.662-0.394-5.805-0.591-12.429-0.591h-3.48l-1.925,17.366h7.007
		c4.047,0,7.641-0.191,10.778-0.573c-2.73,3.271-5.484,4.906-8.262,4.906c-1.557,0-3.76-0.119-6.61-0.358
		c-1.174-0.072-2-0.108-2.479-0.108h-0.862l-0.343,3.104c-0.501,4.518-1.295,7.728-2.381,9.63c-1.087,1.902-3.217,3.817-6.392,5.742
		l7.842,0.609l3.191,0.286c2.248,0.168,4.939,0.251,8.072,0.251c1.552,0,3.025-0.15,4.425-0.443
		c9.742-8.497,15.899-21,15.899-34.942c0-19.038-11.48-35.392-27.893-42.525l-0.017,0.016L64.67,3.764"/>
	<path style="fill:#A7A9AC;" d="M39.174,84.317c-0.454-0.024-2.065-0.121-4.834-0.29l6.548-4.942c2.362,0.406,5.2,0.764,8.517,1.074
		c2.337-0.906,3.912-2.194,4.723-3.863c0.811-1.67,1.491-5.024,2.04-10.065l2.809-25.351h-1.251c-4.621,0-8.242,0.949-10.862,2.847
		c-0.925,0.669-1.682,1.43-2.28,2.279c-0.277,3.384-0.416,6.184-0.416,8.394c0,2.029,0.871,3.043,2.616,3.043
		c1.289,0,2.888-0.549,4.798-1.647c0.095,0.43,0.143,0.728,0.143,0.895c0,0.716-0.633,1.361-1.898,1.934l-2.077,0.967L37.211,64.39
		c0-4.416,0.573-11.924,1.719-22.523l0.143-1.289h-19.98l-0.36,3.259l-0.465,3.974c-0.405,3.39-1.138,5.837-2.198,7.341
		c-1.059,1.503-3.092,2.971-6.097,4.404l8.438,0.537l-4.287,4.153L3.36,63.699C10.229,80.702,26.887,92.7,46.351,92.7
		c8.369,0,16.22-2.219,22.998-6.1c-4.036-0.041-9.642-0.391-16.819-1.048L39.174,84.317z"/>
	<path style="fill:#145B94;" d="M7.108,59.448c1.886-1.217,3.187-2.739,3.903-4.565c0.716-1.826,1.337-5.222,1.862-10.187
		l2.777-25.065h-1.112c-2.469,0-4.63,0.203-6.486,0.608c-3.135,4.59-5.466,9.772-6.792,15.344l0.046,0.09l-0.088,0.084
		C0.422,39.159,0,42.705,0,46.35c0,4.791,0.728,9.413,2.078,13.761l1.127-1.093L7.108,59.448z"/>
	<polyline style="fill:#FFFFFF;" points="64.792,3.841 64.809,3.824 64.671,3.764 64.792,3.841 	"/>
	<path style="fill:#FFFFFF;" d="M75.41,37.013H63.594c-7.496,0-13.272,1.504-17.33,4.512c-0.483,0.358-0.937,0.729-1.377,1.107
		c0.087-0.903,0.182-1.835,0.285-2.805l0.54-4.87c1.551-14.108,3.114-23.161,4.689-27.159C51.976,3.8,54.78,1.8,58.814,1.8
		c0.143,0,0.286,0.012,0.429,0.019c-1.65-0.477-3.338-0.864-5.058-1.157c-2.175,1.483-4.261,3.48-6.255,6.008
		c-3.938,4.989-6.683,14.418-8.234,28.287l-0.143,1.289H19.538l1.134-9.918c0.216-1.886,0.864-5.562,1.942-11.029h-2.829
		c-3.161,0-6.058,0.328-8.697,0.974c-1.081,1.265-2.095,2.589-3.035,3.966c1.855-0.404,4.017-0.607,6.485-0.607h1.112l-2.777,25.064
		c-0.525,4.965-1.146,8.361-1.862,10.187c-0.716,1.826-2.017,3.348-3.903,4.565l-3.903-0.429l-1.127,1.092
		c0.378,1.219,0.808,2.415,1.282,3.588l10.764,0.547l4.287-4.153l-8.438-0.537c3.005-1.432,5.038-2.901,6.097-4.404
		c1.06-1.504,1.793-3.951,2.198-7.341l0.465-3.974l0.36-3.259h19.98l-0.143,1.289c-1.146,10.599-1.719,18.107-1.719,22.523
		l10.54-4.798l2.076-0.967c1.265-0.573,1.898-1.218,1.898-1.934c0-0.167-0.048-0.465-0.143-0.895
		c-1.91,1.098-3.509,1.647-4.798,1.647c-1.745,0-2.616-1.014-2.616-3.043c0-2.21,0.139-5.01,0.416-8.394
		c0.598-0.849,1.356-1.61,2.28-2.279c2.62-1.898,6.241-2.847,10.862-2.847h1.251l-2.809,25.351
		c-0.549,5.041-1.229,8.395-2.04,10.065c-0.811,1.669-2.385,2.957-4.723,3.864c-3.317-0.31-6.155-0.669-8.517-1.075l-6.548,4.942
		c2.769,0.169,4.38,0.266,4.834,0.29l13.356,1.235c7.177,0.657,12.783,1.007,16.819,1.048c2.661-1.524,5.157-3.304,7.453-5.308
		c-1.399,0.293-2.873,0.443-4.425,0.443c-3.133,0-5.823-0.083-8.072-0.251l-3.191-0.286l-7.841-0.609
		c3.174-1.926,5.305-3.84,6.391-5.742c1.086-1.902,1.88-5.112,2.381-9.63l0.343-3.104h0.863c0.478,0,1.305,0.036,2.478,0.108
		c2.85,0.238,5.054,0.358,6.61,0.358c2.778,0,5.533-1.635,8.263-4.906c-3.138,0.382-6.731,0.573-10.779,0.573h-7.006l1.924-17.366
		h3.48c6.624,0,10.768,0.197,12.43,0.591c1.662,0.394,2.493,1.378,2.493,2.954c0,0.716-0.131,1.671-0.394,2.864
		c0.191,0.024,0.358,0.036,0.502,0.036c0.931,0,1.694-0.706,2.291-2.12l0.573-1.328l2.9-7.365
		C84.385,36.846,79.85,37.013,75.41,37.013"/>
	<polyline style="fill:#145B94;" points="104.62,69.684 104.62,23.016 105.37,23.016 105.37,69.684 	"/>
	<g>
		<path style="fill:#145B94;" d="M218.935,38.258c-0.246-0.413-0.589-0.914-1.037-1.494l-1.178-1.485
			c1.143-0.976,1.714-1.951,1.714-2.927c0-0.712-0.281-1.354-0.835-1.907l-1.96,1.239c0.29,0.272,0.554,0.642,0.773,1.107
			c0.211,0.439,0.316,0.791,0.316,1.055c0,0.334-0.07,0.527-0.22,0.589c-0.22,0.079-0.475-0.009-0.765-0.272
			c-1.942-1.767-3.463-2.979-4.57-3.639l-1.767,0.993l0.009,0.123c0.448,0.202,0.773,0.36,0.976,0.457l0.343,0.281
			c0.158,0.097,0.237,0.36,0.237,0.773v0.114c0,0.835-0.149,2.021-0.439,3.577c-0.272,1.468-0.527,2.47-0.747,3.006l0.132,0.07
			l2.145-1.125c0.36-0.659,0.536-2.145,0.536-4.438v-0.044c0-0.237-0.018-0.448-0.062-0.633c2.136,1.749,3.85,3.858,5.15,6.328
			L218.935,38.258z M208.821,33.186c0-0.729-0.202-1.292-0.598-1.688c-0.519-0.501-1.433-0.747-2.76-0.747
			c-0.36,0-0.835,0.018-1.415,0.053c0.062-0.29,0.097-0.888,0.097-1.811c0-0.571-0.105-1.213-0.308-1.925l-2.127,1.564
			c0.413,0.914,0.624,1.705,0.624,2.382c0,0.554-0.105,1.072-0.316,1.538c0.686-0.114,1.318-0.176,1.898-0.176
			c1.222,0,2.03,0.123,2.435,0.378c0.58,0.36,0.87,0.835,0.87,1.415c0,0.431-0.176,0.87-0.536,1.318
			c-0.352,0.448-0.773,0.773-1.266,0.984c-0.835,0.36-1.318,0.554-1.433,0.58l-1.503,2.856l0.123,0.088
			c1.187-0.308,2.522-1.151,4.017-2.522C208.091,36.131,208.821,34.707,208.821,33.186z M195.471,34.197l-2.153,1.318v4.43
			l2.153-1.415V34.197z M200.991,33.151c0-1.644-1.415-2.47-4.245-2.47c-1.187,0-2.127,0.105-2.821,0.325l-1.134,1.846l0.114,0.088
			c0.923-0.439,1.969-0.659,3.155-0.659c1.854,0,2.777,0.483,2.777,1.441v6.223l2.153-1.415V33.151z M182.826,34.197l-2.153,1.318
			v4.43l2.153-1.415V34.197z M188.345,33.151c0-1.644-1.415-2.47-4.245-2.47c-1.187,0-2.127,0.105-2.821,0.325l-1.134,1.846
			l0.114,0.088c0.923-0.439,1.969-0.659,3.155-0.659c1.854,0,2.777,0.483,2.777,1.441v6.223l2.153-1.415V33.151z M178.764,33.098
			c0-0.729-0.281-1.301-0.844-1.731c-0.589-0.466-1.433-0.694-2.514-0.694c-0.826,0-1.494,0.088-2.013,0.272l-1.204,1.705
			l0.105,0.114c0.589-0.343,1.301-0.519,2.145-0.519c1.477,0,2.215,0.404,2.215,1.213v6.495l2.109-1.424V33.098z M171.285,33.661
			c0-0.237-0.009-0.431-0.018-0.598c-0.132-1.529-0.914-2.373-2.347-2.522l-1.318,1.406l0.053,0.079
			c0.062-0.009,0.167-0.009,0.299-0.009c0.281,0,0.536,0.105,0.765,0.325c0.29,0.272,0.439,0.642,0.439,1.125v6.478l2.127-1.415
			V33.661z M161.273,35.515c1.011-0.738,1.512-1.679,1.512-2.813c0-0.606-0.141-1.327-0.431-2.162l-2.021,1.099
			c0.404,0.914,0.606,1.617,0.606,2.118c0,0.747-0.413,1.415-1.23,2.013l0.185,0.369C160.332,36.078,160.789,35.876,161.273,35.515z
			 M158.451,30.523l-2.127,1.099l1.872,8.446c2.188-0.123,4.078-0.712,5.687-1.767c1.942-1.274,2.918-2.979,2.918-5.115
			c0-0.703-0.114-1.591-0.334-2.654l-2.188,1.116c0.325,0.976,0.492,1.925,0.492,2.839c0,2.32-1.705,3.48-5.106,3.48L158.451,30.523
			z M152.011,33.661c0-0.237-0.009-0.431-0.018-0.598c-0.132-1.529-0.914-2.373-2.347-2.522l-1.318,1.406l0.053,0.079
			c0.062-0.009,0.167-0.009,0.299-0.009c0.281,0,0.536,0.105,0.765,0.325c0.29,0.272,0.439,0.642,0.439,1.125v6.478l2.127-1.415
			V33.661z M141.998,35.515c1.011-0.738,1.512-1.679,1.512-2.813c0-0.606-0.141-1.327-0.431-2.162l-2.021,1.099
			c0.404,0.914,0.606,1.617,0.606,2.118c0,0.747-0.413,1.415-1.23,2.013l0.185,0.369C141.058,36.078,141.515,35.876,141.998,35.515z
			 M139.177,30.523l-2.127,1.099l1.872,8.446c2.188-0.123,4.078-0.712,5.687-1.767c1.942-1.274,2.918-2.979,2.918-5.115
			c0-0.703-0.114-1.591-0.334-2.654l-2.188,1.116c0.325,0.976,0.492,1.925,0.492,2.839c0,2.32-1.705,3.48-5.106,3.48L139.177,30.523
			z M135.794,33.661c0-0.237-0.009-0.431-0.018-0.598c-0.132-1.529-0.914-2.373-2.347-2.522l-1.318,1.406l0.053,0.079
			c0.062-0.009,0.167-0.009,0.299-0.009c0.281,0,0.536,0.105,0.765,0.325c0.29,0.272,0.439,0.642,0.439,1.125v6.478l2.127-1.415
			V33.661z M131.25,33.547c0-1.063-0.404-1.819-1.213-2.276c-0.712-0.396-1.802-0.589-3.287-0.589c-1.652,0-2.918,0.097-3.797,0.281
			l-1.345,1.608l0.079,0.097c0.466-0.097,1.424-0.211,2.874-0.343c-0.809,0.466-1.187,0.976-1.143,1.529l0.343,3.621
			c0.035,0.387-0.132,0.58-0.492,0.58c-0.193,0-0.51-0.088-0.958-0.272l-1.099,1.6v0.158c0.325,0.202,0.677,0.299,1.037,0.299
			c0.914,0,1.749-0.413,2.496-1.23c0.694-0.765,1.046-1.74,1.046-2.936c0-0.36-0.114-1.485-0.352-3.393
			c0.29-0.044,0.563-0.062,0.8-0.062c1.951,0,2.927,0.536,2.927,1.608v6.144l2.083-1.354V33.547z M120.868,30.101
			c0-0.466-0.299-1.002-0.888-1.608l-1.494,1.652c0.325,0.501,0.483,0.835,0.483,1.002s-0.105,0.501-0.325,1.02
			c-0.237,0.589-0.501,1.063-0.773,1.433l0.193,0.132C119.936,31.947,120.868,30.743,120.868,30.101z"/>
		<path style="fill:#145B94;" d="M217.975,53.854c-0.632-1.048-1.42-1.572-2.363-1.572c-0.439,0-1.063,0.255-1.871,0.764
			c-0.673,0.416-1.236,0.84-1.686,1.274c-0.1-0.299-0.252-0.662-0.457-1.089c-0.129-0.263-0.237-0.487-0.325-0.672
			c-0.088-0.184-0.155-0.332-0.202-0.444l-0.114-0.035l-1.3,1.098c0.316,0.48,0.563,0.875,0.742,1.186
			c0.179,0.31,0.294,0.533,0.347,0.668c0.117,0.299,0.176,0.574,0.176,0.826c0,0.035-0.007,0.104-0.022,0.206
			c-0.015,0.103-0.022,0.18-0.022,0.233c0,0.094-0.035,0.346-0.105,0.755c-0.07,0.41-0.173,0.981-0.307,1.713
			c-0.316,1.622-0.483,2.497-0.501,2.626l0.149,0.079l1.581-1.344l0.606-3.628c0.334-2.02,1.153-3.03,2.459-3.03
			c0.831,0,1.505,0.521,2.02,1.563c0.422,0.855,0.632,1.739,0.632,2.653c0,0.714-0.223,1.282-0.668,1.704
			c-0.404,0.386-0.913,0.58-1.528,0.58c-0.556,0-1.001-0.056-1.335-0.167l-1.072,1.203v0.149c0.316,0.117,0.7,0.176,1.151,0.176
			c1.306,0,2.433-0.439,3.382-1.318c0.96-0.908,1.44-2.008,1.44-3.303C218.783,55.713,218.514,54.762,217.975,53.854z
			 M207.53,52.115h-0.141l-1.528,0.949c0.293,1.036,0.439,1.967,0.439,2.793c0,1.282-0.322,2.211-0.966,2.784
			c-0.943,0.843-2.43,1.265-4.462,1.265l-1.159-7.791h-0.149l-1.493,0.887l1.765,8.476c2.863-0.176,4.965-1.004,6.306-2.486
			c1.101-1.206,1.651-2.708,1.651-4.506C207.794,53.784,207.706,52.993,207.53,52.115z M203.525,52.115h-0.149l-1.423,0.887
			c0.375,0.79,0.562,1.525,0.562,2.205c0,0.902-0.369,1.686-1.107,2.354l0.123,0.202c1.616-0.808,2.424-1.929,2.424-3.364
			C203.956,53.544,203.812,52.783,203.525,52.115z M196.168,54.733c0-0.849-0.346-1.487-1.036-1.915
			c-0.586-0.363-1.329-0.545-2.231-0.545c-0.913,0-1.607,0.073-2.082,0.22l-0.852,1.256l0.123,0.088
			c0.632-0.275,1.338-0.413,2.117-0.413c1.019,0,1.727,0.208,2.126,0.624c0.228,0.24,0.343,0.524,0.343,0.852v6.447l0.141,0.097
			l1.353-1.265V54.733z M188.858,52.396h-6.772l-0.817,1.107l0.061,0.114h5.191c-0.123,0.111-0.226,0.206-0.307,0.285L186.03,54.1
			c-0.269,0.287-0.404,0.556-0.404,0.808v6.491l0.158,0.07l1.344-1.23v-6.263c0-0.24,0.179-0.36,0.536-0.36h0.369l0.887-1.098
			L188.858,52.396z M175.975,53.718c-0.009-0.231-0.028-0.47-0.057-0.716l-0.088-0.87l-0.158-0.018l-1.572,0.87l0.501,2.319
			c0.029,0.158,0.053,0.338,0.07,0.54c0.018,0.202,0.026,0.426,0.026,0.672c0,0.515-0.237,1.083-0.711,1.704
			c-0.398,0.533-0.992,1.069-1.783,1.607c0.228-0.398,0.339-0.858,0.334-1.379c-0.006-0.597-0.164-1.279-0.474-2.047l-1.757-4.277
			l-0.149-0.009l-1.423,0.808l2.942,5.858c0.141,0.281,0.202,0.527,0.184,0.738c-0.012,0.176-0.079,0.313-0.202,0.413
			c-0.433,0.334-1.104,0.632-2.011,0.896l-0.826,1.607l0.105,0.105c1.997-0.685,3.513-1.537,4.55-2.556
			c1.628-1.61,2.462-3.475,2.503-5.595C175.985,54.173,175.983,53.949,175.975,53.718z M166.785,55.154
			c0-0.316-0.002-0.565-0.004-0.747c-0.003-0.181-0.007-0.299-0.013-0.351c-0.053-0.451-0.199-0.823-0.439-1.115
			c-0.193-0.234-0.441-0.429-0.742-0.584c-0.302-0.155-0.619-0.233-0.953-0.233l-1.08,1.063l0.123,0.132
			c0.193-0.053,0.354-0.079,0.483-0.079c0.381,0,0.676,0.182,0.887,0.545c0.17,0.305,0.255,0.659,0.255,1.063v6.517l0.141,0.079
			l1.344-1.265V55.154z M162.099,54.733c0-0.849-0.346-1.487-1.036-1.915c-0.586-0.363-1.329-0.545-2.231-0.545
			c-0.913,0-1.607,0.073-2.082,0.22l-0.852,1.256l0.123,0.088c0.632-0.275,1.338-0.413,2.117-0.413c1.019,0,1.727,0.208,2.126,0.624
			c0.228,0.24,0.343,0.524,0.343,0.852v6.447l0.141,0.097l1.353-1.265V54.733z M153.637,53.389c-0.767-0.755-1.71-1.133-2.828-1.133
			c-0.99,0-1.669,0.123-2.038,0.369l-0.72,1.335l0.132,0.105c0.468-0.375,1.104-0.562,1.906-0.562c0.995,0,1.795,0.319,2.398,0.957
			c0.591,0.627,0.887,1.496,0.887,2.609c0,0.849-0.261,1.552-0.782,2.108c-0.527,0.574-1.212,0.861-2.055,0.861
			c-0.679,0-1.171-0.082-1.476-0.246l-1.063,1.08v0.123c0.439,0.211,1.121,0.316,2.047,0.316c1.183,0,2.237-0.498,3.162-1.493
			c1.054-1.142,1.581-2.351,1.581-3.628C154.787,55.072,154.404,54.138,153.637,53.389z M146.348,55.339
			c0-0.714-0.067-1.268-0.202-1.66c-0.193-0.539-0.553-0.946-1.08-1.221c-0.31-0.158-0.641-0.237-0.992-0.237l-1.08,1.001
			l0.079,0.114h0.562c0.386,0,0.682,0.164,0.887,0.492c0.17,0.275,0.255,0.618,0.255,1.028v3.215l0.158,0.079l1.414-1.502V55.339z
			 M137.508,55.734l-1.168,1.353h4.444l1.168-1.353H137.508z M134.659,52.396h-6.772l-0.817,1.107l0.061,0.114h5.191
			c-0.123,0.111-0.226,0.206-0.307,0.285l-0.184,0.198c-0.269,0.287-0.404,0.556-0.404,0.808v6.491l0.158,0.07l1.344-1.23v-6.263
			c0-0.24,0.179-0.36,0.536-0.36h0.369l0.887-1.098L134.659,52.396z M125.517,55.339c0-0.714-0.067-1.268-0.202-1.66
			c-0.193-0.539-0.553-0.946-1.08-1.221c-0.31-0.158-0.641-0.237-0.993-0.237l-1.08,1.001l0.079,0.114h0.562
			c0.386,0,0.682,0.164,0.887,0.492c0.17,0.275,0.255,0.618,0.255,1.028v3.215l0.158,0.079l1.414-1.502V55.339z M120.616,55.163
			c0-0.703-0.07-1.244-0.211-1.625c-0.193-0.515-0.553-0.905-1.08-1.168c-0.31-0.158-0.63-0.237-0.957-0.237l-1.08,1.063
			l0.079,0.114c0.141-0.041,0.287-0.061,0.439-0.061c0.375,0,0.673,0.123,0.896,0.369c0.293,0.328,0.439,0.741,0.439,1.238v9.916
			h0.184l1.291-1.555V55.163z"/>
	</g>
</g>
</svg>
