<?xml version="1.0" encoding="utf-8"?>
<!-- Generator: Adobe Illustrator 18.0.0, SVG Export Plug-In . SVG Version: 6.00 Build 0)  -->
<!DOCTYPE svg PUBLIC "-//W3C//DTD SVG 1.1//EN" "http://www.w3.org/Graphics/SVG/1.1/DTD/svg11.dtd">
<svg version="1.1" id="Layer_1" xmlns="http://www.w3.org/2000/svg" xmlns:xlink="http://www.w3.org/1999/xlink" x="0px" y="0px"
	 width="790px" height="439.4px" viewBox="0 0 790 439.4" enable-background="new 0 0 790 439.4" xml:space="preserve">
<polygon fill="#143469" points="790,104.9 790,0 600,0 600,214.7 "/>
<g>
	<path fill="#FFFFFF" d="M645,122.4h50v-100h-50V122.4z M676.3,34.9h12.5v12.5h-12.5V34.9z M676.3,59.9h12.5v12.5h-12.5V59.9z
		 M676.3,84.9h12.5v12.5h-12.5V84.9z M651.3,34.9h12.5v12.5h-12.5V34.9z M651.3,59.9h12.5v12.5h-12.5V59.9z M651.3,84.9h12.5v12.5
		h-12.5V84.9z M701.3,53.6H745v6.3h-43.8V53.6z M701.3,122.4h12.5v-25h18.8v25H745V66.1h-43.8V122.4z"/>
</g>
<polygon fill="#143469" points="590,104.9 590,0 400,0 400,214.7 "/>
<g>
	<g>
		<path fill="#FFFFFF" d="M532.2,38.7h8.3c0,0,1.6-6.4-5.6-6.7h-16.1c0-0.5-0.3-0.9-0.8-1l-38.2-8.6c-0.6-0.1-1.1,0.2-1.3,0.8
			c0,0.1,0,0.2,0,0.2h-0.8c0-0.2,0-0.3-0.1-0.5c-0.3-0.5-0.9-0.8-1.4-0.5L452,34c-0.5,0.2-0.7,0.9-0.5,1.4l-2.8,0
			c0,0-1.3,3.3,10.4,3.3h13.4v7.8h17.6v-7.8H530v51.6c0,0.1,0,0.2,0.1,0.3c-2.2,0.5-3.8,2.4-3.8,4.7c0,2.3,1.6,4.2,3.8,4.7v3.2
			c0,0.4,0.2,0.7,0.5,0.9l1.8,1.1c0.2,0.2,0.3,0.5,0.3,0.8c0,0.3-0.1,0.6-0.4,0.9c-0.5,0.5-1.2,0.5-1.7,0c-0.4-0.4-1.1-0.4-1.5,0
			s-0.4,1.1,0,1.5c0.7,0.7,1.5,1,2.4,1c0.9,0,1.7-0.3,2.4-1c0.6-0.6,1-1.5,1-2.4c0-0.9-0.3-1.7-1-2.4c-0.1-0.1-0.1-0.1-0.2-0.2
			l-1.4-0.9V100c2.1-0.5,3.8-2.4,3.8-4.7c0-2.3-1.6-4.2-3.8-4.7c0-0.1,0.1-0.2,0.1-0.3V38.7L532.2,38.7z M475.5,34.9l-21.3,0.4
			l22.2-10.6L475.5,34.9z M487.8,32l-7,3.4l-1.2-10.8l33.2,7.4L487.8,32L487.8,32z M533.8,95.3c0,1.5-1.2,2.7-2.7,2.7
			c-1.5,0-2.7-1.2-2.7-2.7c0-1.5,1.2-2.7,2.7-2.7C532.6,92.6,533.8,93.8,533.8,95.3z"/>
		<rect x="468.8" y="47.2" fill="#FFFFFF" width="17.1" height="17.8"/>
		<rect x="471.8" y="66.8" fill="#FFFFFF" width="11.2" height="41.5"/>
		<polygon fill="#FFFFFF" points="490.5,122.4 483,117.9 483,111 471.8,111 471.8,116.7 464.5,122.4 		"/>
	</g>
</g>
<polygon fill="#143469" points="390,104.9 390,0 200,0 200,214.7 "/>
<g>
	<g>
		<path fill="#FFFFFF" d="M288.8,65.4h14.6v9c13.8-0.7,23.2-3.2,28.8-5.4c4.5-1.8,7.3-3.5,8.8-4.6V51c0-2.7-2.1-4.8-4.8-4.8h-13.2
			v-8.8c0-4.4-3.6-8-8-8h-39.2c-4.4,0-8,3.6-8,8v8.8h-13.2c-2.7,0-4.8,2.1-4.8,4.8v13.3c3.8,2.5,15.7,9,39,10.1V65.4z M274.1,37.4
			c0-0.9,0.7-1.6,1.6-1.6h39.2c0.9,0,1.6,0.7,1.6,1.6v8.8h-42.4V37.4z"/>
		<path fill="#FFFFFF" d="M254.5,109.4h81.6c2.7,0,4.8-2.1,4.8-4.8V79v-8c-6,3.4-17.7,8.1-37.6,9v2.5c0,3.8-3.1,6.9-6.9,6.9h-0.9
			c-3.8,0-6.9-3.1-6.9-6.9V80c-20.4-1-32.8-5.8-39-9.2V79v25.6C249.7,107.2,251.9,109.4,254.5,109.4z M335.3,92.6v11.2h-11.2
			C324.1,97.6,329.1,92.6,335.3,92.6z M255.3,92.6c6.2,0,11.2,5,11.2,11.2h-11.2V92.6z"/>
	</g>
</g>
<polygon fill="#143469" points="190,104.9 190,0 0,0 0,214.7 "/>
<g>
	<g>
		<path fill="#FFFFFF" d="M66,49.3c4.3,0,7.7-4.9,7.7-9.2c0-4.3-3.4-7.7-7.7-7.7c-4.3,0-7.7,3.4-7.7,7.7
			C58.3,44.4,61.8,49.3,66,49.3z"/>
		<path fill="#FFFFFF" d="M124,49.3c4.3,0,7.7-4.9,7.7-9.2c0-4.3-3.4-7.7-7.7-7.7c-4.3,0-7.7,3.4-7.7,7.7
			C116.3,44.4,119.7,49.3,124,49.3z"/>
		<path fill="#FFFFFF" d="M71.3,82.8c-1.1-1.4-1.7-3.2-1.5-5l3-27.1c-2.2-0.5-4.6-0.8-6.9-0.8c-5.4,0-11.8,2.1-13,2.5
			c-0.1,0-0.1,0-0.1,0.1c0,0-0.1,0-0.1,0c-0.1,0-0.1,0.1-0.2,0.1c-0.3,0.1-0.6,0.3-0.8,0.5c-0.1,0.1-0.2,0.2-0.3,0.3
			c-0.2,0.2-0.3,0.4-0.4,0.6c-0.1,0.2-0.1,0.4-0.2,0.6c0,0.1-0.1,0.3-0.1,0.4L48.4,77c-0.2,1.7,1,3.2,2.7,3.4c0.1,0,0.2,0,0.3,0
			c1.5,0,2.9-1.2,3-2.7l2.2-20c0.3-0.1,0.5-0.2,0.8-0.2v20.8l-2.4,30.1c-0.2,2,1.3,3.8,3.4,3.9c0.1,0,0.2,0,0.3,0
			c1.9,0,3.5-1.4,3.6-3.4l2.2-27.2C65,81.9,65.5,82,66,82c0.5,0,1-0.1,1.5-0.3l2.2,27.2c0.2,1.9,1.8,3.4,3.6,3.4c0.1,0,0.2,0,0.3,0
			c2-0.2,3.5-1.9,3.4-3.9l-1.9-23.2C73.7,84.9,72.3,84.1,71.3,82.8z"/>
		<path fill="#FFFFFF" d="M139.2,55.1c0-0.2-0.1-0.3-0.1-0.4c-0.1-0.2-0.1-0.4-0.2-0.6c-0.1-0.2-0.2-0.3-0.3-0.5
			c-0.1-0.2-0.2-0.3-0.4-0.4c-0.2-0.1-0.4-0.2-0.6-0.3c-0.1-0.1-0.2-0.2-0.4-0.2c-0.3-0.1-7.3-2.6-13.2-2.6c-2.3,0-4.7,0.4-6.9,0.8
			l3,27.1c0.2,1.8-0.3,3.6-1.5,5c-1,1.2-2.3,2-3.8,2.4l-1.9,23.2c-0.2,2,1.3,3.8,3.4,3.9c0.1,0,0.2,0,0.3,0c1.9,0,3.5-1.4,3.6-3.4
			l2.2-27.2c0.5,0.2,0.9,0.3,1.5,0.3c0.5,0,1-0.1,1.5-0.3l2.2,27.2c0.2,1.9,1.8,3.4,3.6,3.4c0.1,0,0.2,0,0.3,0
			c2-0.2,3.5-1.9,3.4-3.9l-2.4-30.1V57.4c0.3,0.1,0.6,0.2,0.8,0.2l2.2,20c0.2,1.6,1.5,2.7,3,2.7c0.1,0,0.2,0,0.3,0
			c1.7-0.2,2.9-1.7,2.7-3.4L139.2,55.1z"/>
		<path fill="#FFFFFF" d="M95,43.5c5.3,0,9.6-6.2,9.6-11.5s-4.3-9.6-9.6-9.6c-5.3,0-9.6,4.3-9.6,9.6S89.7,43.5,95,43.5z"/>
		<path fill="#FFFFFF" d="M113.7,82.4c2.1-0.2,3.6-2.1,3.4-4.2l-3-27.4c0-0.2-0.1-0.3-0.2-0.5c-0.1-0.3-0.1-0.5-0.3-0.8
			c-0.1-0.2-0.3-0.4-0.4-0.6c-0.1-0.2-0.3-0.4-0.5-0.6c-0.2-0.2-0.5-0.3-0.7-0.4c-0.2-0.1-0.3-0.2-0.5-0.3c-0.3-0.1-8-2.9-15.1-3.2
			l-1,1.9h0l2.6,20l-3,5.3l-3-5.3l2.6-20h0l-1-1.9c-6.4,0.3-13.4,2.6-14.8,3.1c-0.1,0-0.1,0-0.2,0.1c0,0-0.1,0-0.1,0
			c-0.1,0-0.1,0.1-0.2,0.1c-0.4,0.2-0.7,0.3-1,0.6c-0.1,0.1-0.2,0.3-0.4,0.4c-0.2,0.2-0.4,0.4-0.5,0.7c-0.1,0.2-0.2,0.5-0.2,0.8
			c-0.1,0.2-0.2,0.3-0.2,0.5l-3,27.4c-0.2,2.1,1.3,4,3.4,4.2c0.1,0,0.3,0,0.4,0c1.9,0,3.6-1.4,3.8-3.4l2.8-25
			c0.3-0.1,0.7-0.2,1.1-0.3v26l-3,37.7c-0.2,2.5,1.7,4.7,4.2,4.9c0.1,0,0.3,0,0.4,0c2.4,0,4.4-1.8,4.6-4.2l2.7-34.1
			c0.6,0.3,1.2,0.4,1.8,0.4s1.3-0.1,1.8-0.4l2.7,34.1c0.2,2.4,2.2,4.2,4.6,4.2c0.1,0,0.2,0,0.4,0c2.5-0.2,4.4-2.4,4.2-4.9l-3-37.7
			v-26c0.4,0.1,0.7,0.2,1.1,0.3l2.8,25c0.2,2,1.9,3.4,3.8,3.4C113.4,82.4,113.6,82.4,113.7,82.4z"/>
	</g>
</g>
<polygon fill="#E6881C" points="790,329.6 790,225 600,225 600,439.4 "/>
<g>
	<path fill="#FFFFFF" d="M645,347h50V247h-50V347z M676.3,259.5h12.5V272h-12.5V259.5z M676.3,284.5h12.5V297h-12.5V284.5z
		 M676.3,309.5h12.5V322h-12.5V309.5z M651.3,259.5h12.5V272h-12.5V259.5z M651.3,284.5h12.5V297h-12.5V284.5z M651.3,309.5h12.5
		V322h-12.5V309.5z M701.3,278.3H745v6.3h-43.8V278.3z M701.3,347h12.5v-25h18.8v25H745v-56.3h-43.8V347z"/>
</g>
<polygon fill="#E6881C" points="590,329.6 590,225 400,225 400,439.4 "/>
<g>
	<g>
		<path fill="#FFFFFF" d="M532.2,263.4h8.3c0,0,1.6-6.4-5.6-6.7h-16.1c0-0.5-0.3-0.9-0.8-1l-38.2-8.6c-0.6-0.1-1.1,0.2-1.3,0.8
			c0,0.1,0,0.2,0,0.2h-0.8c0-0.2,0-0.3-0.1-0.5c-0.3-0.5-0.9-0.8-1.4-0.5L452,258.6c-0.5,0.2-0.7,0.9-0.5,1.4l-2.8,0
			c0,0-1.3,3.3,10.4,3.3h13.4v7.8h17.6v-7.8H530V315c0,0.1,0,0.2,0.1,0.3c-2.2,0.5-3.8,2.4-3.8,4.7c0,2.3,1.6,4.2,3.8,4.7v3.2
			c0,0.4,0.2,0.7,0.5,0.9l1.8,1.1c0.2,0.2,0.3,0.5,0.3,0.8c0,0.3-0.1,0.6-0.4,0.9c-0.5,0.5-1.2,0.5-1.7,0c-0.4-0.4-1.1-0.4-1.5,0
			s-0.4,1.1,0,1.5c0.7,0.7,1.5,1,2.4,1c0.9,0,1.7-0.3,2.4-1c0.6-0.6,1-1.5,1-2.4c0-0.9-0.3-1.7-1-2.4c-0.1-0.1-0.1-0.1-0.2-0.2
			l-1.4-0.9v-2.6c2.1-0.5,3.8-2.4,3.8-4.7c0-2.3-1.6-4.2-3.8-4.7c0-0.1,0.1-0.2,0.1-0.3V263.4L532.2,263.4z M475.5,259.6l-21.3,0.4
			l22.2-10.6L475.5,259.6z M487.8,256.7l-7,3.4l-1.2-10.8l33.2,7.4L487.8,256.7L487.8,256.7z M533.8,320c0,1.5-1.2,2.7-2.7,2.7
			c-1.5,0-2.7-1.2-2.7-2.7c0-1.5,1.2-2.7,2.7-2.7C532.6,317.3,533.8,318.5,533.8,320z"/>
		<rect x="468.8" y="271.9" fill="#FFFFFF" width="17.1" height="17.8"/>
		<rect x="471.8" y="291.5" fill="#FFFFFF" width="11.2" height="41.5"/>
		<polygon fill="#FFFFFF" points="490.5,347 483,342.6 483,335.7 471.8,335.7 471.8,341.4 464.5,347 		"/>
	</g>
</g>
<polygon fill="#E6881C" points="390,329.6 390,225 200,225 200,439.4 "/>
<g>
	<g>
		<path fill="#FFFFFF" d="M288.8,290h14.6v9c13.8-0.7,23.2-3.2,28.8-5.4c4.5-1.8,7.3-3.5,8.8-4.6v-13.4c0-2.7-2.1-4.8-4.8-4.8h-13.2
			V262c0-4.4-3.6-8-8-8h-39.2c-4.4,0-8,3.6-8,8v8.8h-13.2c-2.7,0-4.8,2.1-4.8,4.8v13.3c3.8,2.5,15.7,9,39,10.1V290z M274.1,262
			c0-0.9,0.7-1.6,1.6-1.6h39.2c0.9,0,1.6,0.7,1.6,1.6v8.8h-42.4V262z"/>
		<path fill="#FFFFFF" d="M254.5,334h81.6c2.7,0,4.8-2.1,4.8-4.8v-25.6v-8c-6,3.4-17.7,8.1-37.6,9v2.5c0,3.8-3.1,6.9-6.9,6.9h-0.9
			c-3.8,0-6.9-3.1-6.9-6.9v-2.5c-20.4-1-32.8-5.8-39-9.2v8.2v25.6C249.7,331.9,251.9,334,254.5,334z M335.3,317.2v11.2h-11.2
			C324.1,322.2,329.1,317.2,335.3,317.2z M255.3,317.2c6.2,0,11.2,5,11.2,11.2h-11.2V317.2z"/>
	</g>
</g>
<polygon fill="#E6881C" points="190,329.6 190,225 0,225 0,439.4 "/>
<g>
	<g>
		<path fill="#FFFFFF" d="M66,274c4.3,0,7.7-4.9,7.7-9.2c0-4.3-3.4-7.7-7.7-7.7c-4.3,0-7.7,3.4-7.7,7.7C58.3,269,61.8,274,66,274z"
			/>
		<path fill="#FFFFFF" d="M124,274c4.3,0,7.7-4.9,7.7-9.2c0-4.3-3.4-7.7-7.7-7.7c-4.3,0-7.7,3.4-7.7,7.7
			C116.3,269,119.7,274,124,274z"/>
		<path fill="#FFFFFF" d="M71.3,307.5c-1.1-1.4-1.7-3.2-1.5-5l3-27.1c-2.2-0.5-4.6-0.8-6.9-0.8c-5.4,0-11.8,2.1-13,2.5
			c-0.1,0-0.1,0-0.1,0.1c0,0-0.1,0-0.1,0c-0.1,0-0.1,0.1-0.2,0.1c-0.3,0.1-0.6,0.3-0.8,0.5c-0.1,0.1-0.2,0.2-0.3,0.3
			c-0.2,0.2-0.3,0.4-0.4,0.6c-0.1,0.2-0.1,0.4-0.2,0.6c0,0.1-0.1,0.3-0.1,0.4l-2.4,21.9c-0.2,1.7,1,3.2,2.7,3.4c0.1,0,0.2,0,0.3,0
			c1.5,0,2.9-1.2,3-2.7l2.2-20c0.3-0.1,0.5-0.2,0.8-0.2v20.8L55.1,333c-0.2,2,1.3,3.8,3.4,3.9c0.1,0,0.2,0,0.3,0
			c1.9,0,3.5-1.4,3.6-3.4l2.2-27.2c0.5,0.2,0.9,0.3,1.5,0.3c0.5,0,1-0.1,1.5-0.3l2.2,27.2c0.2,1.9,1.8,3.4,3.6,3.4
			c0.1,0,0.2,0,0.3,0c2-0.2,3.5-1.9,3.4-3.9l-1.9-23.2C73.7,309.6,72.3,308.8,71.3,307.5z"/>
		<path fill="#FFFFFF" d="M139.2,279.7c0-0.2-0.1-0.3-0.1-0.4c-0.1-0.2-0.1-0.4-0.2-0.6c-0.1-0.2-0.2-0.3-0.3-0.5
			c-0.1-0.2-0.2-0.3-0.4-0.4c-0.2-0.1-0.4-0.2-0.6-0.3c-0.1-0.1-0.2-0.2-0.4-0.2c-0.3-0.1-7.3-2.6-13.2-2.6c-2.3,0-4.7,0.4-6.9,0.8
			l3,27.1c0.2,1.8-0.3,3.6-1.5,5c-1,1.2-2.3,2-3.8,2.4L113,333c-0.2,2,1.3,3.8,3.4,3.9c0.1,0,0.2,0,0.3,0c1.9,0,3.5-1.4,3.6-3.4
			l2.2-27.2c0.5,0.2,0.9,0.3,1.5,0.3c0.5,0,1-0.1,1.5-0.3l2.2,27.2c0.2,1.9,1.8,3.4,3.6,3.4c0.1,0,0.2,0,0.3,0
			c2-0.2,3.5-1.9,3.4-3.9l-2.4-30.1v-20.8c0.3,0.1,0.6,0.2,0.8,0.2l2.2,20c0.2,1.6,1.5,2.7,3,2.7c0.1,0,0.2,0,0.3,0
			c1.7-0.2,2.9-1.7,2.7-3.4L139.2,279.7z"/>
		<path fill="#FFFFFF" d="M95,268.2c5.3,0,9.6-6.2,9.6-11.5c0-5.3-4.3-9.6-9.6-9.6c-5.3,0-9.6,4.3-9.6,9.6
			C85.4,262,89.7,268.2,95,268.2z"/>
		<path fill="#FFFFFF" d="M113.7,307c2.1-0.2,3.6-2.1,3.4-4.2l-3-27.4c0-0.2-0.1-0.3-0.2-0.5c-0.1-0.3-0.1-0.5-0.3-0.8
			c-0.1-0.2-0.3-0.4-0.4-0.6c-0.1-0.2-0.3-0.4-0.5-0.6c-0.2-0.2-0.5-0.3-0.7-0.4c-0.2-0.1-0.3-0.2-0.5-0.3c-0.3-0.1-8-2.9-15.1-3.2
			l-1,1.9h0l2.6,20l-3,5.3l-3-5.3l2.6-20h0l-1-1.9c-6.4,0.3-13.4,2.6-14.8,3.1c-0.1,0-0.1,0-0.2,0.1c0,0-0.1,0-0.1,0
			c-0.1,0-0.1,0.1-0.2,0.1c-0.4,0.2-0.7,0.3-1,0.6c-0.1,0.1-0.2,0.3-0.4,0.4c-0.2,0.2-0.4,0.4-0.5,0.7c-0.1,0.2-0.2,0.5-0.2,0.8
			c-0.1,0.2-0.2,0.3-0.2,0.5l-3,27.4c-0.2,2.1,1.3,4,3.4,4.2c0.1,0,0.3,0,0.4,0c1.9,0,3.6-1.4,3.8-3.4l2.8-25
			c0.3-0.1,0.7-0.2,1.1-0.3v26l-3,37.7c-0.2,2.5,1.7,4.7,4.2,4.9c0.1,0,0.3,0,0.4,0c2.4,0,4.4-1.8,4.6-4.2l2.7-34.1
			c0.6,0.3,1.2,0.4,1.8,0.4s1.3-0.1,1.8-0.4l2.7,34.1c0.2,2.4,2.2,4.2,4.6,4.2c0.1,0,0.2,0,0.4,0c2.5-0.2,4.4-2.4,4.2-4.9l-3-37.7
			v-26c0.4,0.1,0.7,0.2,1.1,0.3l2.8,25c0.2,2,1.9,3.4,3.8,3.4C113.4,307.1,113.6,307.1,113.7,307z"/>
	</g>
</g>
</svg>
